<mxfile host="app.diagrams.net" agent="Mozilla/5.0 (Windows NT 10.0; Win64; x64) AppleWebKit/537.36 (KHTML, like Gecko) Chrome/127.0.0.0 Safari/537.36" version="24.7.14" pages="8">
  <diagram name="ERD" id="WePBnwZIL5QBha02qtGJ">
    <mxGraphModel grid="1" page="1" gridSize="10" guides="1" tooltips="1" connect="1" arrows="1" fold="1" pageScale="1" pageWidth="827" pageHeight="1169" math="0" shadow="0">
      <root>
        <mxCell id="0" />
        <mxCell id="1" parent="0" />
        <mxCell id="bmP2FuUldF5VDJ8PsZR0-1" value="&lt;font style=&quot;font-size: 17px;&quot;&gt;sản phẩm&lt;/font&gt;" style="shape=table;startSize=30;container=1;collapsible=1;childLayout=tableLayout;fixedRows=1;rowLines=0;fontStyle=1;align=center;resizeLast=1;html=1;fontSize=17;" vertex="1" parent="1">
          <mxGeometry x="1370" y="100" width="180" height="180" as="geometry" />
        </mxCell>
        <mxCell id="bmP2FuUldF5VDJ8PsZR0-2" value="" style="shape=tableRow;horizontal=0;startSize=0;swimlaneHead=0;swimlaneBody=0;fillColor=none;collapsible=0;dropTarget=0;points=[[0,0.5],[1,0.5]];portConstraint=eastwest;top=0;left=0;right=0;bottom=1;fontSize=17;" vertex="1" parent="bmP2FuUldF5VDJ8PsZR0-1">
          <mxGeometry y="30" width="180" height="30" as="geometry" />
        </mxCell>
        <mxCell id="bmP2FuUldF5VDJ8PsZR0-3" value="&lt;font style=&quot;font-size: 17px;&quot;&gt;PK&lt;/font&gt;" style="shape=partialRectangle;connectable=0;fillColor=none;top=0;left=0;bottom=0;right=0;fontStyle=1;overflow=hidden;whiteSpace=wrap;html=1;fontSize=17;" vertex="1" parent="bmP2FuUldF5VDJ8PsZR0-2">
          <mxGeometry width="30" height="30" as="geometry">
            <mxRectangle width="30" height="30" as="alternateBounds" />
          </mxGeometry>
        </mxCell>
        <mxCell id="bmP2FuUldF5VDJ8PsZR0-4" value="&lt;font style=&quot;font-size: 17px;&quot;&gt;ID&lt;/font&gt;" style="shape=partialRectangle;connectable=0;fillColor=none;top=0;left=0;bottom=0;right=0;align=left;spacingLeft=6;fontStyle=5;overflow=hidden;whiteSpace=wrap;html=1;fontSize=17;" vertex="1" parent="bmP2FuUldF5VDJ8PsZR0-2">
          <mxGeometry x="30" width="150" height="30" as="geometry">
            <mxRectangle width="150" height="30" as="alternateBounds" />
          </mxGeometry>
        </mxCell>
        <mxCell id="bmP2FuUldF5VDJ8PsZR0-5" value="" style="shape=tableRow;horizontal=0;startSize=0;swimlaneHead=0;swimlaneBody=0;fillColor=none;collapsible=0;dropTarget=0;points=[[0,0.5],[1,0.5]];portConstraint=eastwest;top=0;left=0;right=0;bottom=0;fontSize=17;" vertex="1" parent="bmP2FuUldF5VDJ8PsZR0-1">
          <mxGeometry y="60" width="180" height="30" as="geometry" />
        </mxCell>
        <mxCell id="bmP2FuUldF5VDJ8PsZR0-6" value="" style="shape=partialRectangle;connectable=0;fillColor=none;top=0;left=0;bottom=0;right=0;editable=1;overflow=hidden;whiteSpace=wrap;html=1;fontSize=17;" vertex="1" parent="bmP2FuUldF5VDJ8PsZR0-5">
          <mxGeometry width="30" height="30" as="geometry">
            <mxRectangle width="30" height="30" as="alternateBounds" />
          </mxGeometry>
        </mxCell>
        <mxCell id="bmP2FuUldF5VDJ8PsZR0-7" value="&lt;font style=&quot;font-size: 17px;&quot;&gt;tên&lt;/font&gt;" style="shape=partialRectangle;connectable=0;fillColor=none;top=0;left=0;bottom=0;right=0;align=left;spacingLeft=6;overflow=hidden;whiteSpace=wrap;html=1;fontSize=17;" vertex="1" parent="bmP2FuUldF5VDJ8PsZR0-5">
          <mxGeometry x="30" width="150" height="30" as="geometry">
            <mxRectangle width="150" height="30" as="alternateBounds" />
          </mxGeometry>
        </mxCell>
        <mxCell id="bmP2FuUldF5VDJ8PsZR0-8" value="" style="shape=tableRow;horizontal=0;startSize=0;swimlaneHead=0;swimlaneBody=0;fillColor=none;collapsible=0;dropTarget=0;points=[[0,0.5],[1,0.5]];portConstraint=eastwest;top=0;left=0;right=0;bottom=0;fontSize=17;" vertex="1" parent="bmP2FuUldF5VDJ8PsZR0-1">
          <mxGeometry y="90" width="180" height="30" as="geometry" />
        </mxCell>
        <mxCell id="bmP2FuUldF5VDJ8PsZR0-9" value="" style="shape=partialRectangle;connectable=0;fillColor=none;top=0;left=0;bottom=0;right=0;editable=1;overflow=hidden;whiteSpace=wrap;html=1;fontSize=17;" vertex="1" parent="bmP2FuUldF5VDJ8PsZR0-8">
          <mxGeometry width="30" height="30" as="geometry">
            <mxRectangle width="30" height="30" as="alternateBounds" />
          </mxGeometry>
        </mxCell>
        <mxCell id="bmP2FuUldF5VDJ8PsZR0-10" value="&lt;font style=&quot;font-size: 17px;&quot;&gt;giá tiền&lt;/font&gt;" style="shape=partialRectangle;connectable=0;fillColor=none;top=0;left=0;bottom=0;right=0;align=left;spacingLeft=6;overflow=hidden;whiteSpace=wrap;html=1;fontSize=17;" vertex="1" parent="bmP2FuUldF5VDJ8PsZR0-8">
          <mxGeometry x="30" width="150" height="30" as="geometry">
            <mxRectangle width="150" height="30" as="alternateBounds" />
          </mxGeometry>
        </mxCell>
        <mxCell id="bmP2FuUldF5VDJ8PsZR0-11" value="" style="shape=tableRow;horizontal=0;startSize=0;swimlaneHead=0;swimlaneBody=0;fillColor=none;collapsible=0;dropTarget=0;points=[[0,0.5],[1,0.5]];portConstraint=eastwest;top=0;left=0;right=0;bottom=0;fontSize=17;" vertex="1" parent="bmP2FuUldF5VDJ8PsZR0-1">
          <mxGeometry y="120" width="180" height="30" as="geometry" />
        </mxCell>
        <mxCell id="bmP2FuUldF5VDJ8PsZR0-12" value="" style="shape=partialRectangle;connectable=0;fillColor=none;top=0;left=0;bottom=0;right=0;editable=1;overflow=hidden;whiteSpace=wrap;html=1;fontSize=17;" vertex="1" parent="bmP2FuUldF5VDJ8PsZR0-11">
          <mxGeometry width="30" height="30" as="geometry">
            <mxRectangle width="30" height="30" as="alternateBounds" />
          </mxGeometry>
        </mxCell>
        <mxCell id="bmP2FuUldF5VDJ8PsZR0-13" value="Tồn kho" style="shape=partialRectangle;connectable=0;fillColor=none;top=0;left=0;bottom=0;right=0;align=left;spacingLeft=6;overflow=hidden;whiteSpace=wrap;html=1;fontSize=17;" vertex="1" parent="bmP2FuUldF5VDJ8PsZR0-11">
          <mxGeometry x="30" width="150" height="30" as="geometry">
            <mxRectangle width="150" height="30" as="alternateBounds" />
          </mxGeometry>
        </mxCell>
        <mxCell id="bmP2FuUldF5VDJ8PsZR0-14" value="" style="shape=tableRow;horizontal=0;startSize=0;swimlaneHead=0;swimlaneBody=0;fillColor=none;collapsible=0;dropTarget=0;points=[[0,0.5],[1,0.5]];portConstraint=eastwest;top=0;left=0;right=0;bottom=0;fontSize=17;" vertex="1" parent="bmP2FuUldF5VDJ8PsZR0-1">
          <mxGeometry y="150" width="180" height="30" as="geometry" />
        </mxCell>
        <mxCell id="bmP2FuUldF5VDJ8PsZR0-15" value="" style="shape=partialRectangle;connectable=0;fillColor=none;top=0;left=0;bottom=0;right=0;editable=1;overflow=hidden;whiteSpace=wrap;html=1;fontSize=17;" vertex="1" parent="bmP2FuUldF5VDJ8PsZR0-14">
          <mxGeometry width="30" height="30" as="geometry">
            <mxRectangle width="30" height="30" as="alternateBounds" />
          </mxGeometry>
        </mxCell>
        <mxCell id="bmP2FuUldF5VDJ8PsZR0-16" value="&lt;font style=&quot;font-size: 17px;&quot;&gt;Số lượng đã bán&lt;/font&gt;" style="shape=partialRectangle;connectable=0;fillColor=none;top=0;left=0;bottom=0;right=0;align=left;spacingLeft=6;overflow=hidden;whiteSpace=wrap;html=1;fontSize=17;" vertex="1" parent="bmP2FuUldF5VDJ8PsZR0-14">
          <mxGeometry x="30" width="150" height="30" as="geometry">
            <mxRectangle width="150" height="30" as="alternateBounds" />
          </mxGeometry>
        </mxCell>
        <mxCell id="bmP2FuUldF5VDJ8PsZR0-17" value="khách hàng" style="shape=table;startSize=30;container=1;collapsible=1;childLayout=tableLayout;fixedRows=1;rowLines=0;fontStyle=1;align=center;resizeLast=1;html=1;fontSize=17;" vertex="1" parent="1">
          <mxGeometry x="1610" y="500" width="180" height="240" as="geometry" />
        </mxCell>
        <mxCell id="bmP2FuUldF5VDJ8PsZR0-18" value="" style="shape=tableRow;horizontal=0;startSize=0;swimlaneHead=0;swimlaneBody=0;fillColor=none;collapsible=0;dropTarget=0;points=[[0,0.5],[1,0.5]];portConstraint=eastwest;top=0;left=0;right=0;bottom=1;fontSize=17;" vertex="1" parent="bmP2FuUldF5VDJ8PsZR0-17">
          <mxGeometry y="30" width="180" height="30" as="geometry" />
        </mxCell>
        <mxCell id="bmP2FuUldF5VDJ8PsZR0-19" value="PK" style="shape=partialRectangle;connectable=0;fillColor=none;top=0;left=0;bottom=0;right=0;fontStyle=1;overflow=hidden;whiteSpace=wrap;html=1;fontSize=17;" vertex="1" parent="bmP2FuUldF5VDJ8PsZR0-18">
          <mxGeometry width="30" height="30" as="geometry">
            <mxRectangle width="30" height="30" as="alternateBounds" />
          </mxGeometry>
        </mxCell>
        <mxCell id="bmP2FuUldF5VDJ8PsZR0-20" value="ID" style="shape=partialRectangle;connectable=0;fillColor=none;top=0;left=0;bottom=0;right=0;align=left;spacingLeft=6;fontStyle=5;overflow=hidden;whiteSpace=wrap;html=1;fontSize=17;" vertex="1" parent="bmP2FuUldF5VDJ8PsZR0-18">
          <mxGeometry x="30" width="150" height="30" as="geometry">
            <mxRectangle width="150" height="30" as="alternateBounds" />
          </mxGeometry>
        </mxCell>
        <mxCell id="bmP2FuUldF5VDJ8PsZR0-21" value="" style="shape=tableRow;horizontal=0;startSize=0;swimlaneHead=0;swimlaneBody=0;fillColor=none;collapsible=0;dropTarget=0;points=[[0,0.5],[1,0.5]];portConstraint=eastwest;top=0;left=0;right=0;bottom=0;fontSize=17;" vertex="1" parent="bmP2FuUldF5VDJ8PsZR0-17">
          <mxGeometry y="60" width="180" height="30" as="geometry" />
        </mxCell>
        <mxCell id="bmP2FuUldF5VDJ8PsZR0-22" value="" style="shape=partialRectangle;connectable=0;fillColor=none;top=0;left=0;bottom=0;right=0;editable=1;overflow=hidden;whiteSpace=wrap;html=1;fontSize=17;" vertex="1" parent="bmP2FuUldF5VDJ8PsZR0-21">
          <mxGeometry width="30" height="30" as="geometry">
            <mxRectangle width="30" height="30" as="alternateBounds" />
          </mxGeometry>
        </mxCell>
        <mxCell id="bmP2FuUldF5VDJ8PsZR0-23" value="tên" style="shape=partialRectangle;connectable=0;fillColor=none;top=0;left=0;bottom=0;right=0;align=left;spacingLeft=6;overflow=hidden;whiteSpace=wrap;html=1;fontSize=17;" vertex="1" parent="bmP2FuUldF5VDJ8PsZR0-21">
          <mxGeometry x="30" width="150" height="30" as="geometry">
            <mxRectangle width="150" height="30" as="alternateBounds" />
          </mxGeometry>
        </mxCell>
        <mxCell id="bmP2FuUldF5VDJ8PsZR0-24" value="" style="shape=tableRow;horizontal=0;startSize=0;swimlaneHead=0;swimlaneBody=0;fillColor=none;collapsible=0;dropTarget=0;points=[[0,0.5],[1,0.5]];portConstraint=eastwest;top=0;left=0;right=0;bottom=0;fontSize=17;" vertex="1" parent="bmP2FuUldF5VDJ8PsZR0-17">
          <mxGeometry y="90" width="180" height="30" as="geometry" />
        </mxCell>
        <mxCell id="bmP2FuUldF5VDJ8PsZR0-25" value="" style="shape=partialRectangle;connectable=0;fillColor=none;top=0;left=0;bottom=0;right=0;editable=1;overflow=hidden;whiteSpace=wrap;html=1;fontSize=17;" vertex="1" parent="bmP2FuUldF5VDJ8PsZR0-24">
          <mxGeometry width="30" height="30" as="geometry">
            <mxRectangle width="30" height="30" as="alternateBounds" />
          </mxGeometry>
        </mxCell>
        <mxCell id="bmP2FuUldF5VDJ8PsZR0-26" value="email" style="shape=partialRectangle;connectable=0;fillColor=none;top=0;left=0;bottom=0;right=0;align=left;spacingLeft=6;overflow=hidden;whiteSpace=wrap;html=1;fontSize=17;" vertex="1" parent="bmP2FuUldF5VDJ8PsZR0-24">
          <mxGeometry x="30" width="150" height="30" as="geometry">
            <mxRectangle width="150" height="30" as="alternateBounds" />
          </mxGeometry>
        </mxCell>
        <mxCell id="bmP2FuUldF5VDJ8PsZR0-27" value="" style="shape=tableRow;horizontal=0;startSize=0;swimlaneHead=0;swimlaneBody=0;fillColor=none;collapsible=0;dropTarget=0;points=[[0,0.5],[1,0.5]];portConstraint=eastwest;top=0;left=0;right=0;bottom=0;fontSize=17;" vertex="1" parent="bmP2FuUldF5VDJ8PsZR0-17">
          <mxGeometry y="120" width="180" height="30" as="geometry" />
        </mxCell>
        <mxCell id="bmP2FuUldF5VDJ8PsZR0-28" value="" style="shape=partialRectangle;connectable=0;fillColor=none;top=0;left=0;bottom=0;right=0;editable=1;overflow=hidden;whiteSpace=wrap;html=1;fontSize=17;" vertex="1" parent="bmP2FuUldF5VDJ8PsZR0-27">
          <mxGeometry width="30" height="30" as="geometry">
            <mxRectangle width="30" height="30" as="alternateBounds" />
          </mxGeometry>
        </mxCell>
        <mxCell id="bmP2FuUldF5VDJ8PsZR0-29" value="sdt" style="shape=partialRectangle;connectable=0;fillColor=none;top=0;left=0;bottom=0;right=0;align=left;spacingLeft=6;overflow=hidden;whiteSpace=wrap;html=1;fontSize=17;" vertex="1" parent="bmP2FuUldF5VDJ8PsZR0-27">
          <mxGeometry x="30" width="150" height="30" as="geometry">
            <mxRectangle width="150" height="30" as="alternateBounds" />
          </mxGeometry>
        </mxCell>
        <mxCell id="bmP2FuUldF5VDJ8PsZR0-30" value="" style="shape=tableRow;horizontal=0;startSize=0;swimlaneHead=0;swimlaneBody=0;fillColor=none;collapsible=0;dropTarget=0;points=[[0,0.5],[1,0.5]];portConstraint=eastwest;top=0;left=0;right=0;bottom=0;fontSize=17;" vertex="1" parent="bmP2FuUldF5VDJ8PsZR0-17">
          <mxGeometry y="150" width="180" height="30" as="geometry" />
        </mxCell>
        <mxCell id="bmP2FuUldF5VDJ8PsZR0-31" value="" style="shape=partialRectangle;connectable=0;fillColor=none;top=0;left=0;bottom=0;right=0;editable=1;overflow=hidden;whiteSpace=wrap;html=1;fontSize=17;" vertex="1" parent="bmP2FuUldF5VDJ8PsZR0-30">
          <mxGeometry width="30" height="30" as="geometry">
            <mxRectangle width="30" height="30" as="alternateBounds" />
          </mxGeometry>
        </mxCell>
        <mxCell id="bmP2FuUldF5VDJ8PsZR0-32" value="địa chỉ" style="shape=partialRectangle;connectable=0;fillColor=none;top=0;left=0;bottom=0;right=0;align=left;spacingLeft=6;overflow=hidden;whiteSpace=wrap;html=1;fontSize=17;" vertex="1" parent="bmP2FuUldF5VDJ8PsZR0-30">
          <mxGeometry x="30" width="150" height="30" as="geometry">
            <mxRectangle width="150" height="30" as="alternateBounds" />
          </mxGeometry>
        </mxCell>
        <mxCell id="bmP2FuUldF5VDJ8PsZR0-33" value="" style="shape=tableRow;horizontal=0;startSize=0;swimlaneHead=0;swimlaneBody=0;fillColor=none;collapsible=0;dropTarget=0;points=[[0,0.5],[1,0.5]];portConstraint=eastwest;top=0;left=0;right=0;bottom=0;fontSize=17;" vertex="1" parent="bmP2FuUldF5VDJ8PsZR0-17">
          <mxGeometry y="180" width="180" height="30" as="geometry" />
        </mxCell>
        <mxCell id="bmP2FuUldF5VDJ8PsZR0-34" value="" style="shape=partialRectangle;connectable=0;fillColor=none;top=0;left=0;bottom=0;right=0;editable=1;overflow=hidden;whiteSpace=wrap;html=1;fontSize=17;" vertex="1" parent="bmP2FuUldF5VDJ8PsZR0-33">
          <mxGeometry width="30" height="30" as="geometry">
            <mxRectangle width="30" height="30" as="alternateBounds" />
          </mxGeometry>
        </mxCell>
        <mxCell id="bmP2FuUldF5VDJ8PsZR0-35" value="user name" style="shape=partialRectangle;connectable=0;fillColor=none;top=0;left=0;bottom=0;right=0;align=left;spacingLeft=6;overflow=hidden;whiteSpace=wrap;html=1;fontSize=17;" vertex="1" parent="bmP2FuUldF5VDJ8PsZR0-33">
          <mxGeometry x="30" width="150" height="30" as="geometry">
            <mxRectangle width="150" height="30" as="alternateBounds" />
          </mxGeometry>
        </mxCell>
        <mxCell id="bmP2FuUldF5VDJ8PsZR0-36" value="" style="shape=tableRow;horizontal=0;startSize=0;swimlaneHead=0;swimlaneBody=0;fillColor=none;collapsible=0;dropTarget=0;points=[[0,0.5],[1,0.5]];portConstraint=eastwest;top=0;left=0;right=0;bottom=0;fontSize=17;" vertex="1" parent="bmP2FuUldF5VDJ8PsZR0-17">
          <mxGeometry y="210" width="180" height="30" as="geometry" />
        </mxCell>
        <mxCell id="bmP2FuUldF5VDJ8PsZR0-37" value="" style="shape=partialRectangle;connectable=0;fillColor=none;top=0;left=0;bottom=0;right=0;editable=1;overflow=hidden;whiteSpace=wrap;html=1;fontSize=17;" vertex="1" parent="bmP2FuUldF5VDJ8PsZR0-36">
          <mxGeometry width="30" height="30" as="geometry">
            <mxRectangle width="30" height="30" as="alternateBounds" />
          </mxGeometry>
        </mxCell>
        <mxCell id="bmP2FuUldF5VDJ8PsZR0-38" value="pass word" style="shape=partialRectangle;connectable=0;fillColor=none;top=0;left=0;bottom=0;right=0;align=left;spacingLeft=6;overflow=hidden;whiteSpace=wrap;html=1;fontSize=17;" vertex="1" parent="bmP2FuUldF5VDJ8PsZR0-36">
          <mxGeometry x="30" width="150" height="30" as="geometry">
            <mxRectangle width="150" height="30" as="alternateBounds" />
          </mxGeometry>
        </mxCell>
        <mxCell id="bmP2FuUldF5VDJ8PsZR0-39" value="nhân viên" style="shape=table;startSize=30;container=1;collapsible=1;childLayout=tableLayout;fixedRows=1;rowLines=0;fontStyle=1;align=center;resizeLast=1;html=1;fontSize=17;" vertex="1" parent="1">
          <mxGeometry x="1360" y="470" width="180" height="300" as="geometry" />
        </mxCell>
        <mxCell id="bmP2FuUldF5VDJ8PsZR0-40" value="" style="shape=tableRow;horizontal=0;startSize=0;swimlaneHead=0;swimlaneBody=0;fillColor=none;collapsible=0;dropTarget=0;points=[[0,0.5],[1,0.5]];portConstraint=eastwest;top=0;left=0;right=0;bottom=1;fontSize=17;" vertex="1" parent="bmP2FuUldF5VDJ8PsZR0-39">
          <mxGeometry y="30" width="180" height="30" as="geometry" />
        </mxCell>
        <mxCell id="bmP2FuUldF5VDJ8PsZR0-41" value="PK" style="shape=partialRectangle;connectable=0;fillColor=none;top=0;left=0;bottom=0;right=0;fontStyle=1;overflow=hidden;whiteSpace=wrap;html=1;fontSize=17;" vertex="1" parent="bmP2FuUldF5VDJ8PsZR0-40">
          <mxGeometry width="30" height="30" as="geometry">
            <mxRectangle width="30" height="30" as="alternateBounds" />
          </mxGeometry>
        </mxCell>
        <mxCell id="bmP2FuUldF5VDJ8PsZR0-42" value="ID" style="shape=partialRectangle;connectable=0;fillColor=none;top=0;left=0;bottom=0;right=0;align=left;spacingLeft=6;fontStyle=5;overflow=hidden;whiteSpace=wrap;html=1;fontSize=17;" vertex="1" parent="bmP2FuUldF5VDJ8PsZR0-40">
          <mxGeometry x="30" width="150" height="30" as="geometry">
            <mxRectangle width="150" height="30" as="alternateBounds" />
          </mxGeometry>
        </mxCell>
        <mxCell id="bmP2FuUldF5VDJ8PsZR0-43" value="" style="shape=tableRow;horizontal=0;startSize=0;swimlaneHead=0;swimlaneBody=0;fillColor=none;collapsible=0;dropTarget=0;points=[[0,0.5],[1,0.5]];portConstraint=eastwest;top=0;left=0;right=0;bottom=0;fontSize=17;" vertex="1" parent="bmP2FuUldF5VDJ8PsZR0-39">
          <mxGeometry y="60" width="180" height="30" as="geometry" />
        </mxCell>
        <mxCell id="bmP2FuUldF5VDJ8PsZR0-44" value="" style="shape=partialRectangle;connectable=0;fillColor=none;top=0;left=0;bottom=0;right=0;editable=1;overflow=hidden;whiteSpace=wrap;html=1;fontSize=17;" vertex="1" parent="bmP2FuUldF5VDJ8PsZR0-43">
          <mxGeometry width="30" height="30" as="geometry">
            <mxRectangle width="30" height="30" as="alternateBounds" />
          </mxGeometry>
        </mxCell>
        <mxCell id="bmP2FuUldF5VDJ8PsZR0-45" value="tên" style="shape=partialRectangle;connectable=0;fillColor=none;top=0;left=0;bottom=0;right=0;align=left;spacingLeft=6;overflow=hidden;whiteSpace=wrap;html=1;fontSize=17;" vertex="1" parent="bmP2FuUldF5VDJ8PsZR0-43">
          <mxGeometry x="30" width="150" height="30" as="geometry">
            <mxRectangle width="150" height="30" as="alternateBounds" />
          </mxGeometry>
        </mxCell>
        <mxCell id="bmP2FuUldF5VDJ8PsZR0-46" value="" style="shape=tableRow;horizontal=0;startSize=0;swimlaneHead=0;swimlaneBody=0;fillColor=none;collapsible=0;dropTarget=0;points=[[0,0.5],[1,0.5]];portConstraint=eastwest;top=0;left=0;right=0;bottom=0;fontSize=17;" vertex="1" parent="bmP2FuUldF5VDJ8PsZR0-39">
          <mxGeometry y="90" width="180" height="30" as="geometry" />
        </mxCell>
        <mxCell id="bmP2FuUldF5VDJ8PsZR0-47" value="" style="shape=partialRectangle;connectable=0;fillColor=none;top=0;left=0;bottom=0;right=0;editable=1;overflow=hidden;whiteSpace=wrap;html=1;fontSize=17;" vertex="1" parent="bmP2FuUldF5VDJ8PsZR0-46">
          <mxGeometry width="30" height="30" as="geometry">
            <mxRectangle width="30" height="30" as="alternateBounds" />
          </mxGeometry>
        </mxCell>
        <mxCell id="bmP2FuUldF5VDJ8PsZR0-48" value="email" style="shape=partialRectangle;connectable=0;fillColor=none;top=0;left=0;bottom=0;right=0;align=left;spacingLeft=6;overflow=hidden;whiteSpace=wrap;html=1;fontSize=17;" vertex="1" parent="bmP2FuUldF5VDJ8PsZR0-46">
          <mxGeometry x="30" width="150" height="30" as="geometry">
            <mxRectangle width="150" height="30" as="alternateBounds" />
          </mxGeometry>
        </mxCell>
        <mxCell id="bmP2FuUldF5VDJ8PsZR0-49" value="" style="shape=tableRow;horizontal=0;startSize=0;swimlaneHead=0;swimlaneBody=0;fillColor=none;collapsible=0;dropTarget=0;points=[[0,0.5],[1,0.5]];portConstraint=eastwest;top=0;left=0;right=0;bottom=0;fontSize=17;" vertex="1" parent="bmP2FuUldF5VDJ8PsZR0-39">
          <mxGeometry y="120" width="180" height="30" as="geometry" />
        </mxCell>
        <mxCell id="bmP2FuUldF5VDJ8PsZR0-50" value="" style="shape=partialRectangle;connectable=0;fillColor=none;top=0;left=0;bottom=0;right=0;editable=1;overflow=hidden;whiteSpace=wrap;html=1;fontSize=17;" vertex="1" parent="bmP2FuUldF5VDJ8PsZR0-49">
          <mxGeometry width="30" height="30" as="geometry">
            <mxRectangle width="30" height="30" as="alternateBounds" />
          </mxGeometry>
        </mxCell>
        <mxCell id="bmP2FuUldF5VDJ8PsZR0-51" value="sdt" style="shape=partialRectangle;connectable=0;fillColor=none;top=0;left=0;bottom=0;right=0;align=left;spacingLeft=6;overflow=hidden;whiteSpace=wrap;html=1;fontSize=17;" vertex="1" parent="bmP2FuUldF5VDJ8PsZR0-49">
          <mxGeometry x="30" width="150" height="30" as="geometry">
            <mxRectangle width="150" height="30" as="alternateBounds" />
          </mxGeometry>
        </mxCell>
        <mxCell id="bmP2FuUldF5VDJ8PsZR0-52" value="" style="shape=tableRow;horizontal=0;startSize=0;swimlaneHead=0;swimlaneBody=0;fillColor=none;collapsible=0;dropTarget=0;points=[[0,0.5],[1,0.5]];portConstraint=eastwest;top=0;left=0;right=0;bottom=0;fontSize=17;" vertex="1" parent="bmP2FuUldF5VDJ8PsZR0-39">
          <mxGeometry y="150" width="180" height="30" as="geometry" />
        </mxCell>
        <mxCell id="bmP2FuUldF5VDJ8PsZR0-53" value="" style="shape=partialRectangle;connectable=0;fillColor=none;top=0;left=0;bottom=0;right=0;editable=1;overflow=hidden;whiteSpace=wrap;html=1;fontSize=17;" vertex="1" parent="bmP2FuUldF5VDJ8PsZR0-52">
          <mxGeometry width="30" height="30" as="geometry">
            <mxRectangle width="30" height="30" as="alternateBounds" />
          </mxGeometry>
        </mxCell>
        <mxCell id="bmP2FuUldF5VDJ8PsZR0-54" value="địa chỉ" style="shape=partialRectangle;connectable=0;fillColor=none;top=0;left=0;bottom=0;right=0;align=left;spacingLeft=6;overflow=hidden;whiteSpace=wrap;html=1;fontSize=17;" vertex="1" parent="bmP2FuUldF5VDJ8PsZR0-52">
          <mxGeometry x="30" width="150" height="30" as="geometry">
            <mxRectangle width="150" height="30" as="alternateBounds" />
          </mxGeometry>
        </mxCell>
        <mxCell id="bmP2FuUldF5VDJ8PsZR0-55" value="" style="shape=tableRow;horizontal=0;startSize=0;swimlaneHead=0;swimlaneBody=0;fillColor=none;collapsible=0;dropTarget=0;points=[[0,0.5],[1,0.5]];portConstraint=eastwest;top=0;left=0;right=0;bottom=0;fontSize=17;" vertex="1" parent="bmP2FuUldF5VDJ8PsZR0-39">
          <mxGeometry y="180" width="180" height="30" as="geometry" />
        </mxCell>
        <mxCell id="bmP2FuUldF5VDJ8PsZR0-56" value="" style="shape=partialRectangle;connectable=0;fillColor=none;top=0;left=0;bottom=0;right=0;editable=1;overflow=hidden;whiteSpace=wrap;html=1;fontSize=17;" vertex="1" parent="bmP2FuUldF5VDJ8PsZR0-55">
          <mxGeometry width="30" height="30" as="geometry">
            <mxRectangle width="30" height="30" as="alternateBounds" />
          </mxGeometry>
        </mxCell>
        <mxCell id="bmP2FuUldF5VDJ8PsZR0-57" value="chức vụ" style="shape=partialRectangle;connectable=0;fillColor=none;top=0;left=0;bottom=0;right=0;align=left;spacingLeft=6;overflow=hidden;whiteSpace=wrap;html=1;fontSize=17;" vertex="1" parent="bmP2FuUldF5VDJ8PsZR0-55">
          <mxGeometry x="30" width="150" height="30" as="geometry">
            <mxRectangle width="150" height="30" as="alternateBounds" />
          </mxGeometry>
        </mxCell>
        <mxCell id="bmP2FuUldF5VDJ8PsZR0-58" value="" style="shape=tableRow;horizontal=0;startSize=0;swimlaneHead=0;swimlaneBody=0;fillColor=none;collapsible=0;dropTarget=0;points=[[0,0.5],[1,0.5]];portConstraint=eastwest;top=0;left=0;right=0;bottom=0;fontSize=17;" vertex="1" parent="bmP2FuUldF5VDJ8PsZR0-39">
          <mxGeometry y="210" width="180" height="30" as="geometry" />
        </mxCell>
        <mxCell id="bmP2FuUldF5VDJ8PsZR0-59" value="" style="shape=partialRectangle;connectable=0;fillColor=none;top=0;left=0;bottom=0;right=0;editable=1;overflow=hidden;whiteSpace=wrap;html=1;fontSize=17;" vertex="1" parent="bmP2FuUldF5VDJ8PsZR0-58">
          <mxGeometry width="30" height="30" as="geometry">
            <mxRectangle width="30" height="30" as="alternateBounds" />
          </mxGeometry>
        </mxCell>
        <mxCell id="bmP2FuUldF5VDJ8PsZR0-60" value="user name" style="shape=partialRectangle;connectable=0;fillColor=none;top=0;left=0;bottom=0;right=0;align=left;spacingLeft=6;overflow=hidden;whiteSpace=wrap;html=1;fontSize=17;" vertex="1" parent="bmP2FuUldF5VDJ8PsZR0-58">
          <mxGeometry x="30" width="150" height="30" as="geometry">
            <mxRectangle width="150" height="30" as="alternateBounds" />
          </mxGeometry>
        </mxCell>
        <mxCell id="bmP2FuUldF5VDJ8PsZR0-61" value="" style="shape=tableRow;horizontal=0;startSize=0;swimlaneHead=0;swimlaneBody=0;fillColor=none;collapsible=0;dropTarget=0;points=[[0,0.5],[1,0.5]];portConstraint=eastwest;top=0;left=0;right=0;bottom=0;fontSize=17;" vertex="1" parent="bmP2FuUldF5VDJ8PsZR0-39">
          <mxGeometry y="240" width="180" height="30" as="geometry" />
        </mxCell>
        <mxCell id="bmP2FuUldF5VDJ8PsZR0-62" value="" style="shape=partialRectangle;connectable=0;fillColor=none;top=0;left=0;bottom=0;right=0;editable=1;overflow=hidden;whiteSpace=wrap;html=1;fontSize=17;" vertex="1" parent="bmP2FuUldF5VDJ8PsZR0-61">
          <mxGeometry width="30" height="30" as="geometry">
            <mxRectangle width="30" height="30" as="alternateBounds" />
          </mxGeometry>
        </mxCell>
        <mxCell id="bmP2FuUldF5VDJ8PsZR0-63" value="pass word" style="shape=partialRectangle;connectable=0;fillColor=none;top=0;left=0;bottom=0;right=0;align=left;spacingLeft=6;overflow=hidden;whiteSpace=wrap;html=1;fontSize=17;" vertex="1" parent="bmP2FuUldF5VDJ8PsZR0-61">
          <mxGeometry x="30" width="150" height="30" as="geometry">
            <mxRectangle width="150" height="30" as="alternateBounds" />
          </mxGeometry>
        </mxCell>
        <mxCell id="bmP2FuUldF5VDJ8PsZR0-64" value="" style="shape=tableRow;horizontal=0;startSize=0;swimlaneHead=0;swimlaneBody=0;fillColor=none;collapsible=0;dropTarget=0;points=[[0,0.5],[1,0.5]];portConstraint=eastwest;top=0;left=0;right=0;bottom=0;fontSize=17;" vertex="1" parent="bmP2FuUldF5VDJ8PsZR0-39">
          <mxGeometry y="270" width="180" height="30" as="geometry" />
        </mxCell>
        <mxCell id="bmP2FuUldF5VDJ8PsZR0-65" value="" style="shape=partialRectangle;connectable=0;fillColor=none;top=0;left=0;bottom=0;right=0;editable=1;overflow=hidden;whiteSpace=wrap;html=1;fontSize=17;" vertex="1" parent="bmP2FuUldF5VDJ8PsZR0-64">
          <mxGeometry width="30" height="30" as="geometry">
            <mxRectangle width="30" height="30" as="alternateBounds" />
          </mxGeometry>
        </mxCell>
        <mxCell id="bmP2FuUldF5VDJ8PsZR0-66" value="trạng thái" style="shape=partialRectangle;connectable=0;fillColor=none;top=0;left=0;bottom=0;right=0;align=left;spacingLeft=6;overflow=hidden;whiteSpace=wrap;html=1;fontSize=17;" vertex="1" parent="bmP2FuUldF5VDJ8PsZR0-64">
          <mxGeometry x="30" width="150" height="30" as="geometry">
            <mxRectangle width="150" height="30" as="alternateBounds" />
          </mxGeometry>
        </mxCell>
        <mxCell id="bmP2FuUldF5VDJ8PsZR0-67" value="&lt;font style=&quot;font-size: 17px;&quot;&gt;giỏ hàng&lt;/font&gt;" style="shape=table;startSize=30;container=1;collapsible=1;childLayout=tableLayout;fixedRows=1;rowLines=0;fontStyle=1;align=center;resizeLast=1;html=1;fontSize=17;" vertex="1" parent="1">
          <mxGeometry x="1610" y="316" width="180" height="90" as="geometry" />
        </mxCell>
        <mxCell id="bmP2FuUldF5VDJ8PsZR0-68" value="" style="shape=tableRow;horizontal=0;startSize=0;swimlaneHead=0;swimlaneBody=0;fillColor=none;collapsible=0;dropTarget=0;points=[[0,0.5],[1,0.5]];portConstraint=eastwest;top=0;left=0;right=0;bottom=1;fontSize=17;" vertex="1" parent="bmP2FuUldF5VDJ8PsZR0-67">
          <mxGeometry y="30" width="180" height="30" as="geometry" />
        </mxCell>
        <mxCell id="bmP2FuUldF5VDJ8PsZR0-69" value="&lt;font style=&quot;font-size: 17px;&quot;&gt;PK&lt;/font&gt;" style="shape=partialRectangle;connectable=0;fillColor=none;top=0;left=0;bottom=0;right=0;fontStyle=1;overflow=hidden;whiteSpace=wrap;html=1;fontSize=17;" vertex="1" parent="bmP2FuUldF5VDJ8PsZR0-68">
          <mxGeometry width="30" height="30" as="geometry">
            <mxRectangle width="30" height="30" as="alternateBounds" />
          </mxGeometry>
        </mxCell>
        <mxCell id="bmP2FuUldF5VDJ8PsZR0-70" value="&lt;font style=&quot;font-size: 17px;&quot;&gt;ID&lt;/font&gt;" style="shape=partialRectangle;connectable=0;fillColor=none;top=0;left=0;bottom=0;right=0;align=left;spacingLeft=6;fontStyle=5;overflow=hidden;whiteSpace=wrap;html=1;fontSize=17;" vertex="1" parent="bmP2FuUldF5VDJ8PsZR0-68">
          <mxGeometry x="30" width="150" height="30" as="geometry">
            <mxRectangle width="150" height="30" as="alternateBounds" />
          </mxGeometry>
        </mxCell>
        <mxCell id="bmP2FuUldF5VDJ8PsZR0-71" value="" style="shape=tableRow;horizontal=0;startSize=0;swimlaneHead=0;swimlaneBody=0;fillColor=none;collapsible=0;dropTarget=0;points=[[0,0.5],[1,0.5]];portConstraint=eastwest;top=0;left=0;right=0;bottom=0;fontSize=17;" vertex="1" parent="bmP2FuUldF5VDJ8PsZR0-67">
          <mxGeometry y="60" width="180" height="30" as="geometry" />
        </mxCell>
        <mxCell id="bmP2FuUldF5VDJ8PsZR0-72" value="&lt;font style=&quot;font-size: 17px;&quot;&gt;FK&lt;/font&gt;" style="shape=partialRectangle;connectable=0;fillColor=none;top=0;left=0;bottom=0;right=0;editable=1;overflow=hidden;whiteSpace=wrap;html=1;fontSize=17;" vertex="1" parent="bmP2FuUldF5VDJ8PsZR0-71">
          <mxGeometry width="30" height="30" as="geometry">
            <mxRectangle width="30" height="30" as="alternateBounds" />
          </mxGeometry>
        </mxCell>
        <mxCell id="bmP2FuUldF5VDJ8PsZR0-73" value="&lt;font style=&quot;font-size: 17px;&quot;&gt;id khách hàng&lt;/font&gt;" style="shape=partialRectangle;connectable=0;fillColor=none;top=0;left=0;bottom=0;right=0;align=left;spacingLeft=6;overflow=hidden;whiteSpace=wrap;html=1;fontSize=17;" vertex="1" parent="bmP2FuUldF5VDJ8PsZR0-71">
          <mxGeometry x="30" width="150" height="30" as="geometry">
            <mxRectangle width="150" height="30" as="alternateBounds" />
          </mxGeometry>
        </mxCell>
        <mxCell id="bmP2FuUldF5VDJ8PsZR0-74" value="thuộc tính sản phẩm" style="shape=table;startSize=30;container=1;collapsible=1;childLayout=tableLayout;fixedRows=1;rowLines=0;fontStyle=1;align=center;resizeLast=1;html=1;fontSize=17;" vertex="1" parent="1">
          <mxGeometry x="1365" y="290" width="180" height="150" as="geometry" />
        </mxCell>
        <mxCell id="bmP2FuUldF5VDJ8PsZR0-75" value="" style="shape=tableRow;horizontal=0;startSize=0;swimlaneHead=0;swimlaneBody=0;fillColor=none;collapsible=0;dropTarget=0;points=[[0,0.5],[1,0.5]];portConstraint=eastwest;top=0;left=0;right=0;bottom=1;fontSize=17;" vertex="1" parent="bmP2FuUldF5VDJ8PsZR0-74">
          <mxGeometry y="30" width="180" height="30" as="geometry" />
        </mxCell>
        <mxCell id="bmP2FuUldF5VDJ8PsZR0-76" value="PK" style="shape=partialRectangle;connectable=0;fillColor=none;top=0;left=0;bottom=0;right=0;fontStyle=1;overflow=hidden;whiteSpace=wrap;html=1;fontSize=17;" vertex="1" parent="bmP2FuUldF5VDJ8PsZR0-75">
          <mxGeometry width="30" height="30" as="geometry">
            <mxRectangle width="30" height="30" as="alternateBounds" />
          </mxGeometry>
        </mxCell>
        <mxCell id="bmP2FuUldF5VDJ8PsZR0-77" value="ID" style="shape=partialRectangle;connectable=0;fillColor=none;top=0;left=0;bottom=0;right=0;align=left;spacingLeft=6;fontStyle=5;overflow=hidden;whiteSpace=wrap;html=1;fontSize=17;" vertex="1" parent="bmP2FuUldF5VDJ8PsZR0-75">
          <mxGeometry x="30" width="150" height="30" as="geometry">
            <mxRectangle width="150" height="30" as="alternateBounds" />
          </mxGeometry>
        </mxCell>
        <mxCell id="bmP2FuUldF5VDJ8PsZR0-78" value="" style="shape=tableRow;horizontal=0;startSize=0;swimlaneHead=0;swimlaneBody=0;fillColor=none;collapsible=0;dropTarget=0;points=[[0,0.5],[1,0.5]];portConstraint=eastwest;top=0;left=0;right=0;bottom=0;fontSize=17;" vertex="1" parent="bmP2FuUldF5VDJ8PsZR0-74">
          <mxGeometry y="60" width="180" height="30" as="geometry" />
        </mxCell>
        <mxCell id="bmP2FuUldF5VDJ8PsZR0-79" value="FK" style="shape=partialRectangle;connectable=0;fillColor=none;top=0;left=0;bottom=0;right=0;editable=1;overflow=hidden;whiteSpace=wrap;html=1;fontSize=17;" vertex="1" parent="bmP2FuUldF5VDJ8PsZR0-78">
          <mxGeometry width="30" height="30" as="geometry">
            <mxRectangle width="30" height="30" as="alternateBounds" />
          </mxGeometry>
        </mxCell>
        <mxCell id="bmP2FuUldF5VDJ8PsZR0-80" value="id sản phẩm" style="shape=partialRectangle;connectable=0;fillColor=none;top=0;left=0;bottom=0;right=0;align=left;spacingLeft=6;overflow=hidden;whiteSpace=wrap;html=1;fontSize=17;" vertex="1" parent="bmP2FuUldF5VDJ8PsZR0-78">
          <mxGeometry x="30" width="150" height="30" as="geometry">
            <mxRectangle width="150" height="30" as="alternateBounds" />
          </mxGeometry>
        </mxCell>
        <mxCell id="bmP2FuUldF5VDJ8PsZR0-81" value="" style="shape=tableRow;horizontal=0;startSize=0;swimlaneHead=0;swimlaneBody=0;fillColor=none;collapsible=0;dropTarget=0;points=[[0,0.5],[1,0.5]];portConstraint=eastwest;top=0;left=0;right=0;bottom=0;fontSize=17;" vertex="1" parent="bmP2FuUldF5VDJ8PsZR0-74">
          <mxGeometry y="90" width="180" height="30" as="geometry" />
        </mxCell>
        <mxCell id="bmP2FuUldF5VDJ8PsZR0-82" value="FK" style="shape=partialRectangle;connectable=0;fillColor=none;top=0;left=0;bottom=0;right=0;editable=1;overflow=hidden;whiteSpace=wrap;html=1;fontSize=17;" vertex="1" parent="bmP2FuUldF5VDJ8PsZR0-81">
          <mxGeometry width="30" height="30" as="geometry">
            <mxRectangle width="30" height="30" as="alternateBounds" />
          </mxGeometry>
        </mxCell>
        <mxCell id="bmP2FuUldF5VDJ8PsZR0-83" value="id thuộc tính" style="shape=partialRectangle;connectable=0;fillColor=none;top=0;left=0;bottom=0;right=0;align=left;spacingLeft=6;overflow=hidden;whiteSpace=wrap;html=1;fontSize=17;" vertex="1" parent="bmP2FuUldF5VDJ8PsZR0-81">
          <mxGeometry x="30" width="150" height="30" as="geometry">
            <mxRectangle width="150" height="30" as="alternateBounds" />
          </mxGeometry>
        </mxCell>
        <mxCell id="bmP2FuUldF5VDJ8PsZR0-84" value="" style="shape=tableRow;horizontal=0;startSize=0;swimlaneHead=0;swimlaneBody=0;fillColor=none;collapsible=0;dropTarget=0;points=[[0,0.5],[1,0.5]];portConstraint=eastwest;top=0;left=0;right=0;bottom=0;fontSize=17;" vertex="1" parent="bmP2FuUldF5VDJ8PsZR0-74">
          <mxGeometry y="120" width="180" height="30" as="geometry" />
        </mxCell>
        <mxCell id="bmP2FuUldF5VDJ8PsZR0-85" value="" style="shape=partialRectangle;connectable=0;fillColor=none;top=0;left=0;bottom=0;right=0;editable=1;overflow=hidden;whiteSpace=wrap;html=1;fontSize=17;" vertex="1" parent="bmP2FuUldF5VDJ8PsZR0-84">
          <mxGeometry width="30" height="30" as="geometry">
            <mxRectangle width="30" height="30" as="alternateBounds" />
          </mxGeometry>
        </mxCell>
        <mxCell id="bmP2FuUldF5VDJ8PsZR0-86" value="giá trị thuộc tính" style="shape=partialRectangle;connectable=0;fillColor=none;top=0;left=0;bottom=0;right=0;align=left;spacingLeft=6;overflow=hidden;whiteSpace=wrap;html=1;fontSize=17;" vertex="1" parent="bmP2FuUldF5VDJ8PsZR0-84">
          <mxGeometry x="30" width="150" height="30" as="geometry">
            <mxRectangle width="150" height="30" as="alternateBounds" />
          </mxGeometry>
        </mxCell>
        <mxCell id="bmP2FuUldF5VDJ8PsZR0-87" value="đơn hàng" style="shape=table;startSize=30;container=1;collapsible=1;childLayout=tableLayout;fixedRows=1;rowLines=0;fontStyle=1;align=center;resizeLast=1;html=1;fontSize=17;" vertex="1" parent="1">
          <mxGeometry x="1110" y="530" width="180" height="210" as="geometry" />
        </mxCell>
        <mxCell id="bmP2FuUldF5VDJ8PsZR0-88" value="" style="shape=tableRow;horizontal=0;startSize=0;swimlaneHead=0;swimlaneBody=0;fillColor=none;collapsible=0;dropTarget=0;points=[[0,0.5],[1,0.5]];portConstraint=eastwest;top=0;left=0;right=0;bottom=1;fontSize=17;" vertex="1" parent="bmP2FuUldF5VDJ8PsZR0-87">
          <mxGeometry y="30" width="180" height="30" as="geometry" />
        </mxCell>
        <mxCell id="bmP2FuUldF5VDJ8PsZR0-89" value="PK" style="shape=partialRectangle;connectable=0;fillColor=none;top=0;left=0;bottom=0;right=0;fontStyle=1;overflow=hidden;whiteSpace=wrap;html=1;fontSize=17;" vertex="1" parent="bmP2FuUldF5VDJ8PsZR0-88">
          <mxGeometry width="30" height="30" as="geometry">
            <mxRectangle width="30" height="30" as="alternateBounds" />
          </mxGeometry>
        </mxCell>
        <mxCell id="bmP2FuUldF5VDJ8PsZR0-90" value="ID" style="shape=partialRectangle;connectable=0;fillColor=none;top=0;left=0;bottom=0;right=0;align=left;spacingLeft=6;fontStyle=5;overflow=hidden;whiteSpace=wrap;html=1;fontSize=17;" vertex="1" parent="bmP2FuUldF5VDJ8PsZR0-88">
          <mxGeometry x="30" width="150" height="30" as="geometry">
            <mxRectangle width="150" height="30" as="alternateBounds" />
          </mxGeometry>
        </mxCell>
        <mxCell id="bmP2FuUldF5VDJ8PsZR0-91" value="" style="shape=tableRow;horizontal=0;startSize=0;swimlaneHead=0;swimlaneBody=0;fillColor=none;collapsible=0;dropTarget=0;points=[[0,0.5],[1,0.5]];portConstraint=eastwest;top=0;left=0;right=0;bottom=0;fontSize=17;" vertex="1" parent="bmP2FuUldF5VDJ8PsZR0-87">
          <mxGeometry y="60" width="180" height="30" as="geometry" />
        </mxCell>
        <mxCell id="bmP2FuUldF5VDJ8PsZR0-92" value="FK" style="shape=partialRectangle;connectable=0;fillColor=none;top=0;left=0;bottom=0;right=0;editable=1;overflow=hidden;whiteSpace=wrap;html=1;fontSize=17;" vertex="1" parent="bmP2FuUldF5VDJ8PsZR0-91">
          <mxGeometry width="30" height="30" as="geometry">
            <mxRectangle width="30" height="30" as="alternateBounds" />
          </mxGeometry>
        </mxCell>
        <mxCell id="bmP2FuUldF5VDJ8PsZR0-93" value="id khách hàng" style="shape=partialRectangle;connectable=0;fillColor=none;top=0;left=0;bottom=0;right=0;align=left;spacingLeft=6;overflow=hidden;whiteSpace=wrap;html=1;fontSize=17;" vertex="1" parent="bmP2FuUldF5VDJ8PsZR0-91">
          <mxGeometry x="30" width="150" height="30" as="geometry">
            <mxRectangle width="150" height="30" as="alternateBounds" />
          </mxGeometry>
        </mxCell>
        <mxCell id="bmP2FuUldF5VDJ8PsZR0-94" value="" style="shape=tableRow;horizontal=0;startSize=0;swimlaneHead=0;swimlaneBody=0;fillColor=none;collapsible=0;dropTarget=0;points=[[0,0.5],[1,0.5]];portConstraint=eastwest;top=0;left=0;right=0;bottom=0;fontSize=17;" vertex="1" parent="bmP2FuUldF5VDJ8PsZR0-87">
          <mxGeometry y="90" width="180" height="30" as="geometry" />
        </mxCell>
        <mxCell id="bmP2FuUldF5VDJ8PsZR0-95" value="FK" style="shape=partialRectangle;connectable=0;fillColor=none;top=0;left=0;bottom=0;right=0;editable=1;overflow=hidden;whiteSpace=wrap;html=1;fontSize=17;" vertex="1" parent="bmP2FuUldF5VDJ8PsZR0-94">
          <mxGeometry width="30" height="30" as="geometry">
            <mxRectangle width="30" height="30" as="alternateBounds" />
          </mxGeometry>
        </mxCell>
        <mxCell id="bmP2FuUldF5VDJ8PsZR0-96" value="id nhân viên" style="shape=partialRectangle;connectable=0;fillColor=none;top=0;left=0;bottom=0;right=0;align=left;spacingLeft=6;overflow=hidden;whiteSpace=wrap;html=1;fontSize=17;" vertex="1" parent="bmP2FuUldF5VDJ8PsZR0-94">
          <mxGeometry x="30" width="150" height="30" as="geometry">
            <mxRectangle width="150" height="30" as="alternateBounds" />
          </mxGeometry>
        </mxCell>
        <mxCell id="bmP2FuUldF5VDJ8PsZR0-97" value="" style="shape=tableRow;horizontal=0;startSize=0;swimlaneHead=0;swimlaneBody=0;fillColor=none;collapsible=0;dropTarget=0;points=[[0,0.5],[1,0.5]];portConstraint=eastwest;top=0;left=0;right=0;bottom=0;fontSize=17;" vertex="1" parent="bmP2FuUldF5VDJ8PsZR0-87">
          <mxGeometry y="120" width="180" height="30" as="geometry" />
        </mxCell>
        <mxCell id="bmP2FuUldF5VDJ8PsZR0-98" value="" style="shape=partialRectangle;connectable=0;fillColor=none;top=0;left=0;bottom=0;right=0;editable=1;overflow=hidden;whiteSpace=wrap;html=1;fontSize=17;" vertex="1" parent="bmP2FuUldF5VDJ8PsZR0-97">
          <mxGeometry width="30" height="30" as="geometry">
            <mxRectangle width="30" height="30" as="alternateBounds" />
          </mxGeometry>
        </mxCell>
        <mxCell id="bmP2FuUldF5VDJ8PsZR0-99" value="ngày mua" style="shape=partialRectangle;connectable=0;fillColor=none;top=0;left=0;bottom=0;right=0;align=left;spacingLeft=6;overflow=hidden;whiteSpace=wrap;html=1;fontSize=17;" vertex="1" parent="bmP2FuUldF5VDJ8PsZR0-97">
          <mxGeometry x="30" width="150" height="30" as="geometry">
            <mxRectangle width="150" height="30" as="alternateBounds" />
          </mxGeometry>
        </mxCell>
        <mxCell id="bmP2FuUldF5VDJ8PsZR0-100" value="" style="shape=tableRow;horizontal=0;startSize=0;swimlaneHead=0;swimlaneBody=0;fillColor=none;collapsible=0;dropTarget=0;points=[[0,0.5],[1,0.5]];portConstraint=eastwest;top=0;left=0;right=0;bottom=0;fontSize=17;" vertex="1" parent="bmP2FuUldF5VDJ8PsZR0-87">
          <mxGeometry y="150" width="180" height="30" as="geometry" />
        </mxCell>
        <mxCell id="bmP2FuUldF5VDJ8PsZR0-101" value="" style="shape=partialRectangle;connectable=0;fillColor=none;top=0;left=0;bottom=0;right=0;editable=1;overflow=hidden;whiteSpace=wrap;html=1;fontSize=17;" vertex="1" parent="bmP2FuUldF5VDJ8PsZR0-100">
          <mxGeometry width="30" height="30" as="geometry">
            <mxRectangle width="30" height="30" as="alternateBounds" />
          </mxGeometry>
        </mxCell>
        <mxCell id="bmP2FuUldF5VDJ8PsZR0-102" value="trạng thái" style="shape=partialRectangle;connectable=0;fillColor=none;top=0;left=0;bottom=0;right=0;align=left;spacingLeft=6;overflow=hidden;whiteSpace=wrap;html=1;fontSize=17;" vertex="1" parent="bmP2FuUldF5VDJ8PsZR0-100">
          <mxGeometry x="30" width="150" height="30" as="geometry">
            <mxRectangle width="150" height="30" as="alternateBounds" />
          </mxGeometry>
        </mxCell>
        <mxCell id="bmP2FuUldF5VDJ8PsZR0-103" value="" style="shape=tableRow;horizontal=0;startSize=0;swimlaneHead=0;swimlaneBody=0;fillColor=none;collapsible=0;dropTarget=0;points=[[0,0.5],[1,0.5]];portConstraint=eastwest;top=0;left=0;right=0;bottom=0;fontSize=17;" vertex="1" parent="bmP2FuUldF5VDJ8PsZR0-87">
          <mxGeometry y="180" width="180" height="30" as="geometry" />
        </mxCell>
        <mxCell id="bmP2FuUldF5VDJ8PsZR0-104" value="" style="shape=partialRectangle;connectable=0;fillColor=none;top=0;left=0;bottom=0;right=0;editable=1;overflow=hidden;whiteSpace=wrap;html=1;fontSize=17;" vertex="1" parent="bmP2FuUldF5VDJ8PsZR0-103">
          <mxGeometry width="30" height="30" as="geometry">
            <mxRectangle width="30" height="30" as="alternateBounds" />
          </mxGeometry>
        </mxCell>
        <mxCell id="bmP2FuUldF5VDJ8PsZR0-105" value="tổng tiền" style="shape=partialRectangle;connectable=0;fillColor=none;top=0;left=0;bottom=0;right=0;align=left;spacingLeft=6;overflow=hidden;whiteSpace=wrap;html=1;fontSize=17;" vertex="1" parent="bmP2FuUldF5VDJ8PsZR0-103">
          <mxGeometry x="30" width="150" height="30" as="geometry">
            <mxRectangle width="150" height="30" as="alternateBounds" />
          </mxGeometry>
        </mxCell>
        <mxCell id="bmP2FuUldF5VDJ8PsZR0-106" value="đơn hàng chi tiết" style="shape=table;startSize=30;container=1;collapsible=1;childLayout=tableLayout;fixedRows=1;rowLines=0;fontStyle=1;align=center;resizeLast=1;html=1;fontSize=17;" vertex="1" parent="1">
          <mxGeometry x="1110" y="331" width="180" height="180" as="geometry" />
        </mxCell>
        <mxCell id="bmP2FuUldF5VDJ8PsZR0-107" value="" style="shape=tableRow;horizontal=0;startSize=0;swimlaneHead=0;swimlaneBody=0;fillColor=none;collapsible=0;dropTarget=0;points=[[0,0.5],[1,0.5]];portConstraint=eastwest;top=0;left=0;right=0;bottom=1;fontSize=17;" vertex="1" parent="bmP2FuUldF5VDJ8PsZR0-106">
          <mxGeometry y="30" width="180" height="30" as="geometry" />
        </mxCell>
        <mxCell id="bmP2FuUldF5VDJ8PsZR0-108" value="PK" style="shape=partialRectangle;connectable=0;fillColor=none;top=0;left=0;bottom=0;right=0;fontStyle=1;overflow=hidden;whiteSpace=wrap;html=1;fontSize=17;" vertex="1" parent="bmP2FuUldF5VDJ8PsZR0-107">
          <mxGeometry width="30" height="30" as="geometry">
            <mxRectangle width="30" height="30" as="alternateBounds" />
          </mxGeometry>
        </mxCell>
        <mxCell id="bmP2FuUldF5VDJ8PsZR0-109" value="ID" style="shape=partialRectangle;connectable=0;fillColor=none;top=0;left=0;bottom=0;right=0;align=left;spacingLeft=6;fontStyle=5;overflow=hidden;whiteSpace=wrap;html=1;fontSize=17;" vertex="1" parent="bmP2FuUldF5VDJ8PsZR0-107">
          <mxGeometry x="30" width="150" height="30" as="geometry">
            <mxRectangle width="150" height="30" as="alternateBounds" />
          </mxGeometry>
        </mxCell>
        <mxCell id="bmP2FuUldF5VDJ8PsZR0-110" value="" style="shape=tableRow;horizontal=0;startSize=0;swimlaneHead=0;swimlaneBody=0;fillColor=none;collapsible=0;dropTarget=0;points=[[0,0.5],[1,0.5]];portConstraint=eastwest;top=0;left=0;right=0;bottom=0;fontSize=17;" vertex="1" parent="bmP2FuUldF5VDJ8PsZR0-106">
          <mxGeometry y="60" width="180" height="30" as="geometry" />
        </mxCell>
        <mxCell id="bmP2FuUldF5VDJ8PsZR0-111" value="FK" style="shape=partialRectangle;connectable=0;fillColor=none;top=0;left=0;bottom=0;right=0;editable=1;overflow=hidden;whiteSpace=wrap;html=1;fontSize=17;" vertex="1" parent="bmP2FuUldF5VDJ8PsZR0-110">
          <mxGeometry width="30" height="30" as="geometry">
            <mxRectangle width="30" height="30" as="alternateBounds" />
          </mxGeometry>
        </mxCell>
        <mxCell id="bmP2FuUldF5VDJ8PsZR0-112" value="id sản phẩm" style="shape=partialRectangle;connectable=0;fillColor=none;top=0;left=0;bottom=0;right=0;align=left;spacingLeft=6;overflow=hidden;whiteSpace=wrap;html=1;fontSize=17;" vertex="1" parent="bmP2FuUldF5VDJ8PsZR0-110">
          <mxGeometry x="30" width="150" height="30" as="geometry">
            <mxRectangle width="150" height="30" as="alternateBounds" />
          </mxGeometry>
        </mxCell>
        <mxCell id="bmP2FuUldF5VDJ8PsZR0-113" value="" style="shape=tableRow;horizontal=0;startSize=0;swimlaneHead=0;swimlaneBody=0;fillColor=none;collapsible=0;dropTarget=0;points=[[0,0.5],[1,0.5]];portConstraint=eastwest;top=0;left=0;right=0;bottom=0;fontSize=17;" vertex="1" parent="bmP2FuUldF5VDJ8PsZR0-106">
          <mxGeometry y="90" width="180" height="30" as="geometry" />
        </mxCell>
        <mxCell id="bmP2FuUldF5VDJ8PsZR0-114" value="FK" style="shape=partialRectangle;connectable=0;fillColor=none;top=0;left=0;bottom=0;right=0;editable=1;overflow=hidden;whiteSpace=wrap;html=1;fontSize=17;" vertex="1" parent="bmP2FuUldF5VDJ8PsZR0-113">
          <mxGeometry width="30" height="30" as="geometry">
            <mxRectangle width="30" height="30" as="alternateBounds" />
          </mxGeometry>
        </mxCell>
        <mxCell id="bmP2FuUldF5VDJ8PsZR0-115" value="id đơn hàng" style="shape=partialRectangle;connectable=0;fillColor=none;top=0;left=0;bottom=0;right=0;align=left;spacingLeft=6;overflow=hidden;whiteSpace=wrap;html=1;fontSize=17;" vertex="1" parent="bmP2FuUldF5VDJ8PsZR0-113">
          <mxGeometry x="30" width="150" height="30" as="geometry">
            <mxRectangle width="150" height="30" as="alternateBounds" />
          </mxGeometry>
        </mxCell>
        <mxCell id="bmP2FuUldF5VDJ8PsZR0-116" value="" style="shape=tableRow;horizontal=0;startSize=0;swimlaneHead=0;swimlaneBody=0;fillColor=none;collapsible=0;dropTarget=0;points=[[0,0.5],[1,0.5]];portConstraint=eastwest;top=0;left=0;right=0;bottom=0;fontSize=17;" vertex="1" parent="bmP2FuUldF5VDJ8PsZR0-106">
          <mxGeometry y="120" width="180" height="30" as="geometry" />
        </mxCell>
        <mxCell id="bmP2FuUldF5VDJ8PsZR0-117" value="" style="shape=partialRectangle;connectable=0;fillColor=none;top=0;left=0;bottom=0;right=0;editable=1;overflow=hidden;whiteSpace=wrap;html=1;fontSize=17;" vertex="1" parent="bmP2FuUldF5VDJ8PsZR0-116">
          <mxGeometry width="30" height="30" as="geometry">
            <mxRectangle width="30" height="30" as="alternateBounds" />
          </mxGeometry>
        </mxCell>
        <mxCell id="bmP2FuUldF5VDJ8PsZR0-118" value="số lượng&amp;nbsp;" style="shape=partialRectangle;connectable=0;fillColor=none;top=0;left=0;bottom=0;right=0;align=left;spacingLeft=6;overflow=hidden;whiteSpace=wrap;html=1;fontSize=17;" vertex="1" parent="bmP2FuUldF5VDJ8PsZR0-116">
          <mxGeometry x="30" width="150" height="30" as="geometry">
            <mxRectangle width="150" height="30" as="alternateBounds" />
          </mxGeometry>
        </mxCell>
        <mxCell id="bmP2FuUldF5VDJ8PsZR0-119" value="" style="shape=tableRow;horizontal=0;startSize=0;swimlaneHead=0;swimlaneBody=0;fillColor=none;collapsible=0;dropTarget=0;points=[[0,0.5],[1,0.5]];portConstraint=eastwest;top=0;left=0;right=0;bottom=0;fontSize=17;" vertex="1" parent="bmP2FuUldF5VDJ8PsZR0-106">
          <mxGeometry y="150" width="180" height="30" as="geometry" />
        </mxCell>
        <mxCell id="bmP2FuUldF5VDJ8PsZR0-120" value="" style="shape=partialRectangle;connectable=0;fillColor=none;top=0;left=0;bottom=0;right=0;editable=1;overflow=hidden;whiteSpace=wrap;html=1;fontSize=17;" vertex="1" parent="bmP2FuUldF5VDJ8PsZR0-119">
          <mxGeometry width="30" height="30" as="geometry">
            <mxRectangle width="30" height="30" as="alternateBounds" />
          </mxGeometry>
        </mxCell>
        <mxCell id="bmP2FuUldF5VDJ8PsZR0-121" value="giá tiền" style="shape=partialRectangle;connectable=0;fillColor=none;top=0;left=0;bottom=0;right=0;align=left;spacingLeft=6;overflow=hidden;whiteSpace=wrap;html=1;fontSize=17;" vertex="1" parent="bmP2FuUldF5VDJ8PsZR0-119">
          <mxGeometry x="30" width="150" height="30" as="geometry">
            <mxRectangle width="150" height="30" as="alternateBounds" />
          </mxGeometry>
        </mxCell>
        <mxCell id="bmP2FuUldF5VDJ8PsZR0-122" value="" style="edgeStyle=orthogonalEdgeStyle;fontSize=17;html=1;endArrow=ERmandOne;rounded=0;exitX=0;exitY=0.5;exitDx=0;exitDy=0;startArrow=ERoneToMany;startFill=0;entryX=0;entryY=0.5;entryDx=0;entryDy=0;endFill=0;" edge="1" parent="1" source="bmP2FuUldF5VDJ8PsZR0-78" target="bmP2FuUldF5VDJ8PsZR0-5">
          <mxGeometry width="100" height="100" relative="1" as="geometry">
            <mxPoint x="1660" y="430" as="sourcePoint" />
            <mxPoint x="1725" y="190" as="targetPoint" />
            <Array as="points">
              <mxPoint x="1342" y="365" />
              <mxPoint x="1342" y="175" />
            </Array>
          </mxGeometry>
        </mxCell>
        <mxCell id="bmP2FuUldF5VDJ8PsZR0-123" value="" style="edgeStyle=orthogonalEdgeStyle;fontSize=17;html=1;endArrow=ERoneToMany;startArrow=ERmandOne;rounded=0;exitX=0;exitY=0.5;exitDx=0;exitDy=0;entryX=0;entryY=0.5;entryDx=0;entryDy=0;endFill=0;startFill=0;" edge="1" parent="1" source="bmP2FuUldF5VDJ8PsZR0-88" target="bmP2FuUldF5VDJ8PsZR0-113">
          <mxGeometry width="100" height="100" relative="1" as="geometry">
            <mxPoint x="1110" y="565" as="sourcePoint" />
            <mxPoint x="1890" y="419" as="targetPoint" />
          </mxGeometry>
        </mxCell>
        <mxCell id="bmP2FuUldF5VDJ8PsZR0-124" value="" style="edgeStyle=orthogonalEdgeStyle;fontSize=17;html=1;endArrow=ERoneToMany;startArrow=ERmandOne;rounded=0;exitX=0;exitY=0.5;exitDx=0;exitDy=0;entryX=0;entryY=0.5;entryDx=0;entryDy=0;" edge="1" parent="1" source="bmP2FuUldF5VDJ8PsZR0-110" target="bmP2FuUldF5VDJ8PsZR0-2">
          <mxGeometry width="100" height="100" relative="1" as="geometry">
            <mxPoint x="1490" y="734" as="sourcePoint" />
            <mxPoint x="1359" y="380" as="targetPoint" />
          </mxGeometry>
        </mxCell>
        <mxCell id="bmP2FuUldF5VDJ8PsZR0-125" value="" style="edgeStyle=orthogonalEdgeStyle;fontSize=17;html=1;endArrow=ERoneToMany;startArrow=ERmandOne;rounded=0;exitX=0;exitY=0.5;exitDx=0;exitDy=0;entryX=1;entryY=0.5;entryDx=0;entryDy=0;" edge="1" parent="1" source="bmP2FuUldF5VDJ8PsZR0-18" target="bmP2FuUldF5VDJ8PsZR0-91">
          <mxGeometry width="100" height="100" relative="1" as="geometry">
            <mxPoint x="1320" y="580.800048828125" as="sourcePoint" />
            <mxPoint x="1470" y="500" as="targetPoint" />
            <Array as="points">
              <mxPoint x="1566" y="545" />
              <mxPoint x="1566" y="452" />
              <mxPoint x="1308" y="452" />
              <mxPoint x="1308" y="605" />
            </Array>
          </mxGeometry>
        </mxCell>
        <mxCell id="bmP2FuUldF5VDJ8PsZR0-126" value="" style="edgeStyle=orthogonalEdgeStyle;fontSize=17;html=1;endArrow=ERoneToMany;startArrow=ERmandOne;rounded=0;exitX=0;exitY=0.5;exitDx=0;exitDy=0;entryX=1;entryY=0.5;entryDx=0;entryDy=0;" edge="1" parent="1" source="bmP2FuUldF5VDJ8PsZR0-40" target="bmP2FuUldF5VDJ8PsZR0-94">
          <mxGeometry width="100" height="100" relative="1" as="geometry">
            <mxPoint x="1620" y="555" as="sourcePoint" />
            <mxPoint x="1300" y="575" as="targetPoint" />
          </mxGeometry>
        </mxCell>
        <mxCell id="bmP2FuUldF5VDJ8PsZR0-127" value="" style="edgeStyle=orthogonalEdgeStyle;fontSize=17;html=1;endArrow=ERoneToMany;startArrow=ERmandOne;rounded=0;exitX=0;exitY=0.5;exitDx=0;exitDy=0;entryX=1;entryY=0.5;entryDx=0;entryDy=0;" edge="1" parent="1" source="bmP2FuUldF5VDJ8PsZR0-141" target="bmP2FuUldF5VDJ8PsZR0-5">
          <mxGeometry width="100" height="100" relative="1" as="geometry">
            <mxPoint x="1610" y="421" as="sourcePoint" />
            <mxPoint x="1548" y="354" as="targetPoint" />
          </mxGeometry>
        </mxCell>
        <mxCell id="bmP2FuUldF5VDJ8PsZR0-128" value="" style="edgeStyle=orthogonalEdgeStyle;fontSize=17;html=1;endArrow=ERmandOne;startArrow=ERmandOne;rounded=0;exitX=1;exitY=0.5;exitDx=0;exitDy=0;entryX=1;entryY=0.5;entryDx=0;entryDy=0;endFill=0;" edge="1" parent="1" source="bmP2FuUldF5VDJ8PsZR0-18" target="bmP2FuUldF5VDJ8PsZR0-71">
          <mxGeometry width="100" height="100" relative="1" as="geometry">
            <mxPoint x="1120" y="545" as="sourcePoint" />
            <mxPoint x="1120" y="375" as="targetPoint" />
            <Array as="points">
              <mxPoint x="1810" y="545" />
              <mxPoint x="1810" y="391" />
            </Array>
          </mxGeometry>
        </mxCell>
        <mxCell id="bmP2FuUldF5VDJ8PsZR0-129" value="&lt;font style=&quot;font-size: 17px;&quot;&gt;thuộc tính&lt;/font&gt;" style="shape=table;startSize=30;container=1;collapsible=1;childLayout=tableLayout;fixedRows=1;rowLines=0;fontStyle=1;align=center;resizeLast=1;html=1;fontSize=17;" vertex="1" parent="1">
          <mxGeometry x="1120" y="226" width="180" height="90" as="geometry" />
        </mxCell>
        <mxCell id="bmP2FuUldF5VDJ8PsZR0-130" value="" style="shape=tableRow;horizontal=0;startSize=0;swimlaneHead=0;swimlaneBody=0;fillColor=none;collapsible=0;dropTarget=0;points=[[0,0.5],[1,0.5]];portConstraint=eastwest;top=0;left=0;right=0;bottom=1;fontSize=17;" vertex="1" parent="bmP2FuUldF5VDJ8PsZR0-129">
          <mxGeometry y="30" width="180" height="30" as="geometry" />
        </mxCell>
        <mxCell id="bmP2FuUldF5VDJ8PsZR0-131" value="&lt;font style=&quot;font-size: 17px;&quot;&gt;PK&lt;/font&gt;" style="shape=partialRectangle;connectable=0;fillColor=none;top=0;left=0;bottom=0;right=0;fontStyle=1;overflow=hidden;whiteSpace=wrap;html=1;fontSize=17;" vertex="1" parent="bmP2FuUldF5VDJ8PsZR0-130">
          <mxGeometry width="30" height="30" as="geometry">
            <mxRectangle width="30" height="30" as="alternateBounds" />
          </mxGeometry>
        </mxCell>
        <mxCell id="bmP2FuUldF5VDJ8PsZR0-132" value="&lt;font style=&quot;font-size: 17px;&quot;&gt;ID&lt;/font&gt;" style="shape=partialRectangle;connectable=0;fillColor=none;top=0;left=0;bottom=0;right=0;align=left;spacingLeft=6;fontStyle=5;overflow=hidden;whiteSpace=wrap;html=1;fontSize=17;" vertex="1" parent="bmP2FuUldF5VDJ8PsZR0-130">
          <mxGeometry x="30" width="150" height="30" as="geometry">
            <mxRectangle width="150" height="30" as="alternateBounds" />
          </mxGeometry>
        </mxCell>
        <mxCell id="bmP2FuUldF5VDJ8PsZR0-133" value="" style="shape=tableRow;horizontal=0;startSize=0;swimlaneHead=0;swimlaneBody=0;fillColor=none;collapsible=0;dropTarget=0;points=[[0,0.5],[1,0.5]];portConstraint=eastwest;top=0;left=0;right=0;bottom=0;fontSize=17;" vertex="1" parent="bmP2FuUldF5VDJ8PsZR0-129">
          <mxGeometry y="60" width="180" height="30" as="geometry" />
        </mxCell>
        <mxCell id="bmP2FuUldF5VDJ8PsZR0-134" value="" style="shape=partialRectangle;connectable=0;fillColor=none;top=0;left=0;bottom=0;right=0;editable=1;overflow=hidden;whiteSpace=wrap;html=1;fontSize=17;" vertex="1" parent="bmP2FuUldF5VDJ8PsZR0-133">
          <mxGeometry width="30" height="30" as="geometry">
            <mxRectangle width="30" height="30" as="alternateBounds" />
          </mxGeometry>
        </mxCell>
        <mxCell id="bmP2FuUldF5VDJ8PsZR0-135" value="&lt;font style=&quot;font-size: 17px;&quot;&gt;tên&lt;/font&gt;" style="shape=partialRectangle;connectable=0;fillColor=none;top=0;left=0;bottom=0;right=0;align=left;spacingLeft=6;overflow=hidden;whiteSpace=wrap;html=1;fontSize=17;" vertex="1" parent="bmP2FuUldF5VDJ8PsZR0-133">
          <mxGeometry x="30" width="150" height="30" as="geometry">
            <mxRectangle width="150" height="30" as="alternateBounds" />
          </mxGeometry>
        </mxCell>
        <mxCell id="bmP2FuUldF5VDJ8PsZR0-136" value="" style="edgeStyle=orthogonalEdgeStyle;fontSize=17;html=1;endArrow=ERmandOne;rounded=0;exitX=0;exitY=0.5;exitDx=0;exitDy=0;startArrow=ERoneToMany;startFill=0;entryX=1;entryY=0.5;entryDx=0;entryDy=0;endFill=0;" edge="1" parent="1" source="bmP2FuUldF5VDJ8PsZR0-81" target="bmP2FuUldF5VDJ8PsZR0-130">
          <mxGeometry width="100" height="100" relative="1" as="geometry">
            <mxPoint x="1547" y="342" as="sourcePoint" />
            <mxPoint x="1620" y="285" as="targetPoint" />
            <Array as="points">
              <mxPoint x="1322" y="395" />
              <mxPoint x="1322" y="271" />
            </Array>
          </mxGeometry>
        </mxCell>
        <mxCell id="bmP2FuUldF5VDJ8PsZR0-137" value="&lt;font style=&quot;font-size: 17px;&quot;&gt;giỏ hàng chi tiết&lt;/font&gt;" style="shape=table;startSize=30;container=1;collapsible=1;childLayout=tableLayout;fixedRows=1;rowLines=0;fontStyle=1;align=center;resizeLast=1;html=1;fontSize=17;" vertex="1" parent="1">
          <mxGeometry x="1613" y="115" width="180" height="150" as="geometry" />
        </mxCell>
        <mxCell id="bmP2FuUldF5VDJ8PsZR0-138" value="" style="shape=tableRow;horizontal=0;startSize=0;swimlaneHead=0;swimlaneBody=0;fillColor=none;collapsible=0;dropTarget=0;points=[[0,0.5],[1,0.5]];portConstraint=eastwest;top=0;left=0;right=0;bottom=1;fontSize=17;" vertex="1" parent="bmP2FuUldF5VDJ8PsZR0-137">
          <mxGeometry y="30" width="180" height="30" as="geometry" />
        </mxCell>
        <mxCell id="bmP2FuUldF5VDJ8PsZR0-139" value="&lt;font style=&quot;font-size: 17px;&quot;&gt;PK&lt;/font&gt;" style="shape=partialRectangle;connectable=0;fillColor=none;top=0;left=0;bottom=0;right=0;fontStyle=1;overflow=hidden;whiteSpace=wrap;html=1;fontSize=17;" vertex="1" parent="bmP2FuUldF5VDJ8PsZR0-138">
          <mxGeometry width="30" height="30" as="geometry">
            <mxRectangle width="30" height="30" as="alternateBounds" />
          </mxGeometry>
        </mxCell>
        <mxCell id="bmP2FuUldF5VDJ8PsZR0-140" value="&lt;font style=&quot;font-size: 17px;&quot;&gt;ID&lt;/font&gt;" style="shape=partialRectangle;connectable=0;fillColor=none;top=0;left=0;bottom=0;right=0;align=left;spacingLeft=6;fontStyle=5;overflow=hidden;whiteSpace=wrap;html=1;fontSize=17;" vertex="1" parent="bmP2FuUldF5VDJ8PsZR0-138">
          <mxGeometry x="30" width="150" height="30" as="geometry">
            <mxRectangle width="150" height="30" as="alternateBounds" />
          </mxGeometry>
        </mxCell>
        <mxCell id="bmP2FuUldF5VDJ8PsZR0-141" value="" style="shape=tableRow;horizontal=0;startSize=0;swimlaneHead=0;swimlaneBody=0;fillColor=none;collapsible=0;dropTarget=0;points=[[0,0.5],[1,0.5]];portConstraint=eastwest;top=0;left=0;right=0;bottom=0;fontSize=17;" vertex="1" parent="bmP2FuUldF5VDJ8PsZR0-137">
          <mxGeometry y="60" width="180" height="30" as="geometry" />
        </mxCell>
        <mxCell id="bmP2FuUldF5VDJ8PsZR0-142" value="&lt;font style=&quot;font-size: 17px;&quot;&gt;FK&lt;/font&gt;" style="shape=partialRectangle;connectable=0;fillColor=none;top=0;left=0;bottom=0;right=0;editable=1;overflow=hidden;whiteSpace=wrap;html=1;fontSize=17;" vertex="1" parent="bmP2FuUldF5VDJ8PsZR0-141">
          <mxGeometry width="30" height="30" as="geometry">
            <mxRectangle width="30" height="30" as="alternateBounds" />
          </mxGeometry>
        </mxCell>
        <mxCell id="bmP2FuUldF5VDJ8PsZR0-143" value="&lt;font style=&quot;font-size: 17px;&quot;&gt;id sản phẩm&lt;/font&gt;" style="shape=partialRectangle;connectable=0;fillColor=none;top=0;left=0;bottom=0;right=0;align=left;spacingLeft=6;overflow=hidden;whiteSpace=wrap;html=1;fontSize=17;" vertex="1" parent="bmP2FuUldF5VDJ8PsZR0-141">
          <mxGeometry x="30" width="150" height="30" as="geometry">
            <mxRectangle width="150" height="30" as="alternateBounds" />
          </mxGeometry>
        </mxCell>
        <mxCell id="bmP2FuUldF5VDJ8PsZR0-144" value="" style="shape=tableRow;horizontal=0;startSize=0;swimlaneHead=0;swimlaneBody=0;fillColor=none;collapsible=0;dropTarget=0;points=[[0,0.5],[1,0.5]];portConstraint=eastwest;top=0;left=0;right=0;bottom=0;fontSize=17;" vertex="1" parent="bmP2FuUldF5VDJ8PsZR0-137">
          <mxGeometry y="90" width="180" height="30" as="geometry" />
        </mxCell>
        <mxCell id="bmP2FuUldF5VDJ8PsZR0-145" value="" style="shape=partialRectangle;connectable=0;fillColor=none;top=0;left=0;bottom=0;right=0;editable=1;overflow=hidden;whiteSpace=wrap;html=1;fontSize=17;" vertex="1" parent="bmP2FuUldF5VDJ8PsZR0-144">
          <mxGeometry width="30" height="30" as="geometry">
            <mxRectangle width="30" height="30" as="alternateBounds" />
          </mxGeometry>
        </mxCell>
        <mxCell id="bmP2FuUldF5VDJ8PsZR0-146" value="&lt;font style=&quot;font-size: 17px;&quot;&gt;số lượng&lt;/font&gt;" style="shape=partialRectangle;connectable=0;fillColor=none;top=0;left=0;bottom=0;right=0;align=left;spacingLeft=6;overflow=hidden;whiteSpace=wrap;html=1;fontSize=17;" vertex="1" parent="bmP2FuUldF5VDJ8PsZR0-144">
          <mxGeometry x="30" width="150" height="30" as="geometry">
            <mxRectangle width="150" height="30" as="alternateBounds" />
          </mxGeometry>
        </mxCell>
        <mxCell id="bmP2FuUldF5VDJ8PsZR0-147" value="" style="shape=tableRow;horizontal=0;startSize=0;swimlaneHead=0;swimlaneBody=0;fillColor=none;collapsible=0;dropTarget=0;points=[[0,0.5],[1,0.5]];portConstraint=eastwest;top=0;left=0;right=0;bottom=0;fontSize=17;" vertex="1" parent="bmP2FuUldF5VDJ8PsZR0-137">
          <mxGeometry y="120" width="180" height="30" as="geometry" />
        </mxCell>
        <mxCell id="bmP2FuUldF5VDJ8PsZR0-148" value="" style="shape=partialRectangle;connectable=0;fillColor=none;top=0;left=0;bottom=0;right=0;editable=1;overflow=hidden;whiteSpace=wrap;html=1;fontSize=17;" vertex="1" parent="bmP2FuUldF5VDJ8PsZR0-147">
          <mxGeometry width="30" height="30" as="geometry">
            <mxRectangle width="30" height="30" as="alternateBounds" />
          </mxGeometry>
        </mxCell>
        <mxCell id="bmP2FuUldF5VDJ8PsZR0-149" value="&lt;font style=&quot;font-size: 17px;&quot;&gt;id giỏ hàng&lt;/font&gt;" style="shape=partialRectangle;connectable=0;fillColor=none;top=0;left=0;bottom=0;right=0;align=left;spacingLeft=6;overflow=hidden;whiteSpace=wrap;html=1;fontSize=17;" vertex="1" parent="bmP2FuUldF5VDJ8PsZR0-147">
          <mxGeometry x="30" width="150" height="30" as="geometry">
            <mxRectangle width="150" height="30" as="alternateBounds" />
          </mxGeometry>
        </mxCell>
        <mxCell id="bmP2FuUldF5VDJ8PsZR0-150" value="" style="edgeStyle=orthogonalEdgeStyle;fontSize=17;html=1;endArrow=ERoneToMany;startArrow=ERmandOne;rounded=0;exitX=0;exitY=0.5;exitDx=0;exitDy=0;entryX=0;entryY=0.5;entryDx=0;entryDy=0;" edge="1" parent="1" source="bmP2FuUldF5VDJ8PsZR0-68" target="bmP2FuUldF5VDJ8PsZR0-147">
          <mxGeometry width="100" height="100" relative="1" as="geometry">
            <mxPoint x="1623" y="200" as="sourcePoint" />
            <mxPoint x="1550" y="200" as="targetPoint" />
          </mxGeometry>
        </mxCell>
      </root>
    </mxGraphModel>
  </diagram>
  <diagram id="5skfPsaNei9o73tXH3Wz" name="Usecase tổng hợp">
    <mxGraphModel grid="1" page="1" gridSize="10" guides="1" tooltips="1" connect="1" arrows="1" fold="1" pageScale="1" pageWidth="827" pageHeight="1169" math="0" shadow="0">
      <root>
        <mxCell id="0" />
        <mxCell id="1" parent="0" />
        <mxCell id="VeodT81LSxHqsZNGim1v-23" value="&lt;h2 style=&quot;border-color: var(--border-color);&quot;&gt;Shop bán thức ăn thú cưng&lt;/h2&gt;" style="shape=umlFrame;whiteSpace=wrap;html=1;pointerEvents=0;recursiveResize=0;container=1;collapsible=0;width=170;height=50;" vertex="1" parent="1">
          <mxGeometry x="1500" y="230" width="610" height="680" as="geometry" />
        </mxCell>
        <mxCell id="VeodT81LSxHqsZNGim1v-24" value="Quản lý nhân viên" style="ellipse;whiteSpace=wrap;html=1;" vertex="1" parent="VeodT81LSxHqsZNGim1v-23">
          <mxGeometry x="240" y="310" width="110" height="50" as="geometry" />
        </mxCell>
        <mxCell id="VeodT81LSxHqsZNGim1v-25" value="Thống kê" style="ellipse;whiteSpace=wrap;html=1;" vertex="1" parent="VeodT81LSxHqsZNGim1v-23">
          <mxGeometry x="240" y="390" width="110" height="50" as="geometry" />
        </mxCell>
        <mxCell id="VeodT81LSxHqsZNGim1v-26" value="Quản lý đơn hàng" style="ellipse;whiteSpace=wrap;html=1;" vertex="1" parent="VeodT81LSxHqsZNGim1v-23">
          <mxGeometry x="240" y="240" width="110" height="50" as="geometry" />
        </mxCell>
        <mxCell id="VeodT81LSxHqsZNGim1v-27" value="Quản lý sản phẩm" style="ellipse;whiteSpace=wrap;html=1;" vertex="1" parent="VeodT81LSxHqsZNGim1v-23">
          <mxGeometry x="240" y="160" width="110" height="50" as="geometry" />
        </mxCell>
        <mxCell id="VeodT81LSxHqsZNGim1v-28" value="Mua hàng" style="ellipse;whiteSpace=wrap;html=1;" vertex="1" parent="VeodT81LSxHqsZNGim1v-23">
          <mxGeometry x="240" y="460" width="110" height="50" as="geometry" />
        </mxCell>
        <mxCell id="VeodT81LSxHqsZNGim1v-29" value="Xác thực tài khoản" style="ellipse;whiteSpace=wrap;html=1;" vertex="1" parent="VeodT81LSxHqsZNGim1v-23">
          <mxGeometry x="240" y="90" width="110" height="50" as="geometry" />
        </mxCell>
        <mxCell id="VeodT81LSxHqsZNGim1v-30" value="Client" style="shape=umlActor;verticalLabelPosition=bottom;verticalAlign=top;html=1;outlineConnect=0;" vertex="1" parent="1">
          <mxGeometry x="2167" y="570" width="30" height="60" as="geometry" />
        </mxCell>
        <mxCell id="VeodT81LSxHqsZNGim1v-31" value="Staff" style="shape=umlActor;verticalLabelPosition=bottom;verticalAlign=top;html=1;outlineConnect=0;" vertex="1" parent="1">
          <mxGeometry x="1460" y="430" width="30" height="60" as="geometry" />
        </mxCell>
        <mxCell id="VeodT81LSxHqsZNGim1v-32" value="Admin" style="shape=umlActor;verticalLabelPosition=bottom;verticalAlign=top;html=1;outlineConnect=0;" vertex="1" parent="1">
          <mxGeometry x="1460" y="770" width="30" height="60" as="geometry" />
        </mxCell>
        <mxCell id="VeodT81LSxHqsZNGim1v-33" value="" style="endArrow=classic;html=1;rounded=0;exitX=1;exitY=0.3333333333333333;exitDx=0;exitDy=0;exitPerimeter=0;entryX=0;entryY=0.5;entryDx=0;entryDy=0;endFill=1;" edge="1" parent="1" source="VeodT81LSxHqsZNGim1v-31" target="VeodT81LSxHqsZNGim1v-27">
          <mxGeometry width="50" height="50" relative="1" as="geometry">
            <mxPoint x="1810" y="660" as="sourcePoint" />
            <mxPoint x="1540" y="405" as="targetPoint" />
          </mxGeometry>
        </mxCell>
        <mxCell id="VeodT81LSxHqsZNGim1v-34" value="" style="endArrow=classic;html=1;rounded=0;exitX=0;exitY=0.3333333333333333;exitDx=0;exitDy=0;exitPerimeter=0;entryX=1;entryY=0.5;entryDx=0;entryDy=0;startArrow=none;startFill=0;endFill=1;" edge="1" parent="1" source="VeodT81LSxHqsZNGim1v-30" target="VeodT81LSxHqsZNGim1v-27">
          <mxGeometry width="50" height="50" relative="1" as="geometry">
            <mxPoint x="1840" y="650" as="sourcePoint" />
            <mxPoint x="1890" y="600" as="targetPoint" />
          </mxGeometry>
        </mxCell>
        <mxCell id="VeodT81LSxHqsZNGim1v-35" value="" style="endArrow=none;html=1;rounded=0;entryX=1;entryY=0.3333333333333333;entryDx=0;entryDy=0;entryPerimeter=0;exitX=0;exitY=0.5;exitDx=0;exitDy=0;endFill=0;startArrow=classic;startFill=1;" edge="1" parent="1" source="VeodT81LSxHqsZNGim1v-26" target="VeodT81LSxHqsZNGim1v-31">
          <mxGeometry width="50" height="50" relative="1" as="geometry">
            <mxPoint x="1540" y="475" as="sourcePoint" />
            <mxPoint x="1890" y="500" as="targetPoint" />
          </mxGeometry>
        </mxCell>
        <mxCell id="VeodT81LSxHqsZNGim1v-36" value="" style="endArrow=none;html=1;rounded=0;entryX=0;entryY=0.3333333333333333;entryDx=0;entryDy=0;entryPerimeter=0;exitX=1;exitY=0.5;exitDx=0;exitDy=0;endFill=0;startArrow=classic;startFill=1;" edge="1" parent="1" source="VeodT81LSxHqsZNGim1v-28" target="VeodT81LSxHqsZNGim1v-30">
          <mxGeometry width="50" height="50" relative="1" as="geometry">
            <mxPoint x="1750" y="920" as="sourcePoint" />
            <mxPoint x="2160" y="900" as="targetPoint" />
          </mxGeometry>
        </mxCell>
        <mxCell id="VeodT81LSxHqsZNGim1v-37" value="" style="endArrow=classic;html=1;rounded=0;exitX=1;exitY=0.3333333333333333;exitDx=0;exitDy=0;exitPerimeter=0;entryX=0;entryY=0.5;entryDx=0;entryDy=0;startArrow=none;startFill=0;endFill=1;" edge="1" parent="1" source="VeodT81LSxHqsZNGim1v-32" target="VeodT81LSxHqsZNGim1v-27">
          <mxGeometry width="50" height="50" relative="1" as="geometry">
            <mxPoint x="1890" y="900" as="sourcePoint" />
            <mxPoint x="1540" y="805" as="targetPoint" />
          </mxGeometry>
        </mxCell>
        <mxCell id="VeodT81LSxHqsZNGim1v-38" value="" style="endArrow=none;html=1;rounded=0;exitX=1;exitY=0.5;exitDx=0;exitDy=0;entryX=0;entryY=0.3333333333333333;entryDx=0;entryDy=0;entryPerimeter=0;endFill=0;startArrow=classic;startFill=1;" edge="1" parent="1" source="VeodT81LSxHqsZNGim1v-29" target="VeodT81LSxHqsZNGim1v-30">
          <mxGeometry width="50" height="50" relative="1" as="geometry">
            <mxPoint x="1830" y="402" as="sourcePoint" />
            <mxPoint x="2170" y="720" as="targetPoint" />
          </mxGeometry>
        </mxCell>
        <mxCell id="VeodT81LSxHqsZNGim1v-39" value="" style="endArrow=classic;html=1;rounded=0;exitX=1;exitY=0.3333333333333333;exitDx=0;exitDy=0;exitPerimeter=0;entryX=0;entryY=0.5;entryDx=0;entryDy=0;startArrow=none;startFill=0;endFill=1;" edge="1" parent="1" source="VeodT81LSxHqsZNGim1v-32" target="VeodT81LSxHqsZNGim1v-26">
          <mxGeometry width="50" height="50" relative="1" as="geometry">
            <mxPoint x="1610" y="760" as="sourcePoint" />
            <mxPoint x="1860" y="385" as="targetPoint" />
          </mxGeometry>
        </mxCell>
        <mxCell id="VeodT81LSxHqsZNGim1v-40" value="" style="endArrow=classic;html=1;rounded=0;exitX=1;exitY=0.3333333333333333;exitDx=0;exitDy=0;exitPerimeter=0;entryX=0;entryY=0.5;entryDx=0;entryDy=0;startArrow=none;startFill=0;endFill=1;" edge="1" parent="1" source="VeodT81LSxHqsZNGim1v-32" target="VeodT81LSxHqsZNGim1v-24">
          <mxGeometry width="50" height="50" relative="1" as="geometry">
            <mxPoint x="1620" y="800" as="sourcePoint" />
            <mxPoint x="1870" y="425" as="targetPoint" />
          </mxGeometry>
        </mxCell>
        <mxCell id="VeodT81LSxHqsZNGim1v-41" value="" style="endArrow=classic;html=1;rounded=0;exitX=1;exitY=0.3333333333333333;exitDx=0;exitDy=0;exitPerimeter=0;entryX=0;entryY=0.5;entryDx=0;entryDy=0;startArrow=none;startFill=0;endFill=1;" edge="1" parent="1" source="VeodT81LSxHqsZNGim1v-32" target="VeodT81LSxHqsZNGim1v-25">
          <mxGeometry width="50" height="50" relative="1" as="geometry">
            <mxPoint x="1620" y="810" as="sourcePoint" />
            <mxPoint x="1870" y="435" as="targetPoint" />
          </mxGeometry>
        </mxCell>
        <mxCell id="VeodT81LSxHqsZNGim1v-42" value="" style="endArrow=classic;html=1;rounded=0;exitX=1;exitY=0.3333333333333333;exitDx=0;exitDy=0;exitPerimeter=0;entryX=0;entryY=0.5;entryDx=0;entryDy=0;endFill=1;" edge="1" parent="1" source="VeodT81LSxHqsZNGim1v-31" target="VeodT81LSxHqsZNGim1v-29">
          <mxGeometry width="50" height="50" relative="1" as="geometry">
            <mxPoint x="1460" y="330" as="sourcePoint" />
            <mxPoint x="1710" y="295" as="targetPoint" />
          </mxGeometry>
        </mxCell>
        <mxCell id="VeodT81LSxHqsZNGim1v-43" value="" style="endArrow=classic;html=1;rounded=0;exitX=1;exitY=0.3333333333333333;exitDx=0;exitDy=0;exitPerimeter=0;entryX=0;entryY=0.5;entryDx=0;entryDy=0;endFill=1;" edge="1" parent="1" source="VeodT81LSxHqsZNGim1v-32" target="VeodT81LSxHqsZNGim1v-29">
          <mxGeometry width="50" height="50" relative="1" as="geometry">
            <mxPoint x="1500" y="460" as="sourcePoint" />
            <mxPoint x="1750" y="355" as="targetPoint" />
          </mxGeometry>
        </mxCell>
        <mxCell id="VeodT81LSxHqsZNGim1v-44" value="" style="endArrow=none;html=1;rounded=0;entryX=0;entryY=0.3333333333333333;entryDx=0;entryDy=0;entryPerimeter=0;exitX=1;exitY=0.5;exitDx=0;exitDy=0;endFill=0;startArrow=classic;startFill=1;" edge="1" parent="1" source="VeodT81LSxHqsZNGim1v-25" target="VeodT81LSxHqsZNGim1v-30">
          <mxGeometry width="50" height="50" relative="1" as="geometry">
            <mxPoint x="2350" y="640" as="sourcePoint" />
            <mxPoint x="2667" y="515" as="targetPoint" />
          </mxGeometry>
        </mxCell>
      </root>
    </mxGraphModel>
  </diagram>
  <diagram id="M8jYNSdokOhH4ao02QWV" name="Xác thực tài khoản">
    <mxGraphModel grid="1" page="1" gridSize="10" guides="1" tooltips="1" connect="1" arrows="1" fold="1" pageScale="1" pageWidth="827" pageHeight="1169" math="0" shadow="0">
      <root>
        <mxCell id="0" />
        <mxCell id="1" parent="0" />
        <mxCell id="obsddpgnT3i8rJ2s_U3b-1" value="" style="swimlane;startSize=0;" vertex="1" parent="1">
          <mxGeometry x="2580" y="260" width="220" height="250" as="geometry">
            <mxRectangle x="2590" y="250" width="50" height="40" as="alternateBounds" />
          </mxGeometry>
        </mxCell>
        <mxCell id="obsddpgnT3i8rJ2s_U3b-2" value="Đăng nhập" style="ellipse;whiteSpace=wrap;html=1;" vertex="1" parent="obsddpgnT3i8rJ2s_U3b-1">
          <mxGeometry x="60" y="70" width="110" height="50" as="geometry" />
        </mxCell>
        <mxCell id="obsddpgnT3i8rJ2s_U3b-3" value="Đăng ký" style="ellipse;whiteSpace=wrap;html=1;" vertex="1" parent="obsddpgnT3i8rJ2s_U3b-1">
          <mxGeometry x="60" y="10" width="110" height="50" as="geometry" />
        </mxCell>
        <mxCell id="obsddpgnT3i8rJ2s_U3b-4" value="Đổi mật khẩu" style="ellipse;whiteSpace=wrap;html=1;" vertex="1" parent="obsddpgnT3i8rJ2s_U3b-1">
          <mxGeometry x="60" y="130" width="110" height="50" as="geometry" />
        </mxCell>
        <mxCell id="obsddpgnT3i8rJ2s_U3b-5" value="Đăng xuất" style="ellipse;whiteSpace=wrap;html=1;" vertex="1" parent="obsddpgnT3i8rJ2s_U3b-1">
          <mxGeometry x="60" y="190" width="110" height="50" as="geometry" />
        </mxCell>
        <mxCell id="obsddpgnT3i8rJ2s_U3b-6" value="Client" style="shape=umlActor;verticalLabelPosition=bottom;verticalAlign=top;html=1;outlineConnect=0;" vertex="1" parent="1">
          <mxGeometry x="2850" y="350" width="30" height="60" as="geometry" />
        </mxCell>
        <mxCell id="obsddpgnT3i8rJ2s_U3b-7" value="&lt;font face=&quot;Times New Roman&quot; style=&quot;font-size: 14px;&quot;&gt;&lt;b style=&quot;&quot;&gt;Xác thực tài khoản&lt;/b&gt;&lt;/font&gt;" style="text;html=1;align=center;verticalAlign=middle;whiteSpace=wrap;rounded=0;" vertex="1" parent="1">
          <mxGeometry x="2635" y="220" width="135" height="30" as="geometry" />
        </mxCell>
        <mxCell id="obsddpgnT3i8rJ2s_U3b-8" value="Staff" style="shape=umlActor;verticalLabelPosition=bottom;verticalAlign=top;html=1;outlineConnect=0;" vertex="1" parent="1">
          <mxGeometry x="2520" y="420" width="30" height="60" as="geometry" />
        </mxCell>
        <mxCell id="obsddpgnT3i8rJ2s_U3b-9" value="Admin" style="shape=umlActor;verticalLabelPosition=bottom;verticalAlign=top;html=1;outlineConnect=0;" vertex="1" parent="1">
          <mxGeometry x="2520" y="280" width="30" height="60" as="geometry" />
        </mxCell>
        <mxCell id="obsddpgnT3i8rJ2s_U3b-10" value="" style="endArrow=none;html=1;rounded=0;exitX=0;exitY=0.5;exitDx=0;exitDy=0;entryX=1;entryY=0.3333333333333333;entryDx=0;entryDy=0;entryPerimeter=0;endFill=0;startArrow=classic;startFill=1;" edge="1" parent="1" source="obsddpgnT3i8rJ2s_U3b-3" target="obsddpgnT3i8rJ2s_U3b-9">
          <mxGeometry width="50" height="50" relative="1" as="geometry">
            <mxPoint x="1850" y="345" as="sourcePoint" />
            <mxPoint x="2167" y="590" as="targetPoint" />
          </mxGeometry>
        </mxCell>
        <mxCell id="obsddpgnT3i8rJ2s_U3b-11" value="" style="endArrow=none;html=1;rounded=0;exitX=0;exitY=0.5;exitDx=0;exitDy=0;entryX=1;entryY=0.3333333333333333;entryDx=0;entryDy=0;entryPerimeter=0;endFill=0;startArrow=classic;startFill=1;" edge="1" parent="1" source="obsddpgnT3i8rJ2s_U3b-2" target="obsddpgnT3i8rJ2s_U3b-8">
          <mxGeometry width="50" height="50" relative="1" as="geometry">
            <mxPoint x="2650" y="305" as="sourcePoint" />
            <mxPoint x="2570" y="450" as="targetPoint" />
          </mxGeometry>
        </mxCell>
        <mxCell id="obsddpgnT3i8rJ2s_U3b-12" value="" style="endArrow=none;html=1;rounded=0;exitX=0;exitY=0.5;exitDx=0;exitDy=0;entryX=1;entryY=0.3333333333333333;entryDx=0;entryDy=0;entryPerimeter=0;endFill=0;startArrow=classic;startFill=1;" edge="1" parent="1" source="obsddpgnT3i8rJ2s_U3b-2" target="obsddpgnT3i8rJ2s_U3b-9">
          <mxGeometry width="50" height="50" relative="1" as="geometry">
            <mxPoint x="2650" y="365" as="sourcePoint" />
            <mxPoint x="2570" y="320" as="targetPoint" />
          </mxGeometry>
        </mxCell>
        <mxCell id="obsddpgnT3i8rJ2s_U3b-13" value="" style="endArrow=none;html=1;rounded=0;exitX=0;exitY=0.5;exitDx=0;exitDy=0;entryX=1;entryY=0.3333333333333333;entryDx=0;entryDy=0;entryPerimeter=0;endFill=0;startArrow=classic;startFill=1;" edge="1" parent="1" source="obsddpgnT3i8rJ2s_U3b-4" target="obsddpgnT3i8rJ2s_U3b-9">
          <mxGeometry width="50" height="50" relative="1" as="geometry">
            <mxPoint x="2650" y="305" as="sourcePoint" />
            <mxPoint x="2570" y="450" as="targetPoint" />
          </mxGeometry>
        </mxCell>
        <mxCell id="obsddpgnT3i8rJ2s_U3b-14" value="" style="endArrow=none;html=1;rounded=0;exitX=0;exitY=0.5;exitDx=0;exitDy=0;entryX=1;entryY=0.3333333333333333;entryDx=0;entryDy=0;entryPerimeter=0;endFill=0;startArrow=classic;startFill=1;" edge="1" parent="1" source="obsddpgnT3i8rJ2s_U3b-5" target="obsddpgnT3i8rJ2s_U3b-9">
          <mxGeometry width="50" height="50" relative="1" as="geometry">
            <mxPoint x="2650" y="425" as="sourcePoint" />
            <mxPoint x="2570" y="450" as="targetPoint" />
          </mxGeometry>
        </mxCell>
        <mxCell id="obsddpgnT3i8rJ2s_U3b-15" value="" style="endArrow=none;html=1;rounded=0;exitX=0;exitY=0.5;exitDx=0;exitDy=0;entryX=1;entryY=0.3333333333333333;entryDx=0;entryDy=0;entryPerimeter=0;endFill=0;startArrow=classic;startFill=1;" edge="1" parent="1" source="obsddpgnT3i8rJ2s_U3b-4" target="obsddpgnT3i8rJ2s_U3b-8">
          <mxGeometry width="50" height="50" relative="1" as="geometry">
            <mxPoint x="2650" y="485" as="sourcePoint" />
            <mxPoint x="2570" y="450" as="targetPoint" />
          </mxGeometry>
        </mxCell>
        <mxCell id="obsddpgnT3i8rJ2s_U3b-16" value="" style="endArrow=none;html=1;rounded=0;exitX=0;exitY=0.5;exitDx=0;exitDy=0;entryX=1;entryY=0.3333333333333333;entryDx=0;entryDy=0;entryPerimeter=0;endFill=0;startArrow=classic;startFill=1;" edge="1" parent="1" source="obsddpgnT3i8rJ2s_U3b-5" target="obsddpgnT3i8rJ2s_U3b-8">
          <mxGeometry width="50" height="50" relative="1" as="geometry">
            <mxPoint x="2650" y="425" as="sourcePoint" />
            <mxPoint x="2570" y="320" as="targetPoint" />
          </mxGeometry>
        </mxCell>
        <mxCell id="obsddpgnT3i8rJ2s_U3b-17" value="" style="endArrow=none;html=1;rounded=0;exitX=1;exitY=0.5;exitDx=0;exitDy=0;entryX=0;entryY=0.3333333333333333;entryDx=0;entryDy=0;entryPerimeter=0;endFill=0;startArrow=classic;startFill=1;" edge="1" parent="1" source="obsddpgnT3i8rJ2s_U3b-3" target="obsddpgnT3i8rJ2s_U3b-6">
          <mxGeometry width="50" height="50" relative="1" as="geometry">
            <mxPoint x="2650" y="425" as="sourcePoint" />
            <mxPoint x="2570" y="450" as="targetPoint" />
          </mxGeometry>
        </mxCell>
        <mxCell id="obsddpgnT3i8rJ2s_U3b-18" value="" style="endArrow=none;html=1;rounded=0;exitX=1;exitY=0.5;exitDx=0;exitDy=0;entryX=0;entryY=0.3333333333333333;entryDx=0;entryDy=0;entryPerimeter=0;endFill=0;startArrow=classic;startFill=1;" edge="1" parent="1" source="obsddpgnT3i8rJ2s_U3b-2" target="obsddpgnT3i8rJ2s_U3b-6">
          <mxGeometry width="50" height="50" relative="1" as="geometry">
            <mxPoint x="2760" y="305" as="sourcePoint" />
            <mxPoint x="2860" y="380" as="targetPoint" />
          </mxGeometry>
        </mxCell>
        <mxCell id="obsddpgnT3i8rJ2s_U3b-19" value="" style="endArrow=none;html=1;rounded=0;exitX=1;exitY=0.5;exitDx=0;exitDy=0;entryX=0;entryY=0.3333333333333333;entryDx=0;entryDy=0;entryPerimeter=0;endFill=0;startArrow=classic;startFill=1;" edge="1" parent="1" source="obsddpgnT3i8rJ2s_U3b-4" target="obsddpgnT3i8rJ2s_U3b-6">
          <mxGeometry width="50" height="50" relative="1" as="geometry">
            <mxPoint x="2760" y="365" as="sourcePoint" />
            <mxPoint x="2870" y="390" as="targetPoint" />
          </mxGeometry>
        </mxCell>
        <mxCell id="obsddpgnT3i8rJ2s_U3b-20" value="" style="endArrow=none;html=1;rounded=0;exitX=1;exitY=0.5;exitDx=0;exitDy=0;entryX=0;entryY=0.3333333333333333;entryDx=0;entryDy=0;entryPerimeter=0;endFill=0;startArrow=classic;startFill=1;" edge="1" parent="1" source="obsddpgnT3i8rJ2s_U3b-5" target="obsddpgnT3i8rJ2s_U3b-6">
          <mxGeometry width="50" height="50" relative="1" as="geometry">
            <mxPoint x="2760" y="425" as="sourcePoint" />
            <mxPoint x="2880" y="400" as="targetPoint" />
          </mxGeometry>
        </mxCell>
      </root>
    </mxGraphModel>
  </diagram>
  <diagram id="VFmFTO-xVfmQNCdFQd0q" name="Mua Hàng">
    <mxGraphModel grid="1" page="1" gridSize="10" guides="1" tooltips="1" connect="1" arrows="1" fold="1" pageScale="1" pageWidth="827" pageHeight="1169" math="0" shadow="0">
      <root>
        <mxCell id="0" />
        <mxCell id="1" parent="0" />
        <mxCell id="jMJUYhbphQLBH6Tp2j-n-1" value="" style="swimlane;startSize=0;" vertex="1" parent="1">
          <mxGeometry x="3070" y="260" width="220" height="250" as="geometry">
            <mxRectangle x="2590" y="250" width="50" height="40" as="alternateBounds" />
          </mxGeometry>
        </mxCell>
        <mxCell id="jMJUYhbphQLBH6Tp2j-n-2" value="Đặt hàng" style="ellipse;whiteSpace=wrap;html=1;" vertex="1" parent="jMJUYhbphQLBH6Tp2j-n-1">
          <mxGeometry x="60" y="95" width="110" height="50" as="geometry" />
        </mxCell>
        <mxCell id="jMJUYhbphQLBH6Tp2j-n-3" value="Thêm giỏ hàng" style="ellipse;whiteSpace=wrap;html=1;" vertex="1" parent="jMJUYhbphQLBH6Tp2j-n-1">
          <mxGeometry x="60" y="20" width="110" height="50" as="geometry" />
        </mxCell>
        <mxCell id="jMJUYhbphQLBH6Tp2j-n-4" value="Xem sản phẩm" style="ellipse;whiteSpace=wrap;html=1;" vertex="1" parent="jMJUYhbphQLBH6Tp2j-n-1">
          <mxGeometry x="60" y="165" width="110" height="50" as="geometry" />
        </mxCell>
        <mxCell id="jMJUYhbphQLBH6Tp2j-n-5" value="Client" style="shape=umlActor;verticalLabelPosition=bottom;verticalAlign=top;html=1;outlineConnect=0;" vertex="1" parent="1">
          <mxGeometry x="3340" y="350" width="30" height="60" as="geometry" />
        </mxCell>
        <mxCell id="jMJUYhbphQLBH6Tp2j-n-6" value="&lt;font face=&quot;Times New Roman&quot; style=&quot;font-size: 14px;&quot;&gt;&lt;b style=&quot;&quot;&gt;Mua hàng&lt;/b&gt;&lt;/font&gt;" style="text;html=1;align=center;verticalAlign=middle;whiteSpace=wrap;rounded=0;" vertex="1" parent="1">
          <mxGeometry x="3125" y="220" width="135" height="30" as="geometry" />
        </mxCell>
        <mxCell id="jMJUYhbphQLBH6Tp2j-n-7" value="Staff" style="shape=umlActor;verticalLabelPosition=bottom;verticalAlign=top;html=1;outlineConnect=0;" vertex="1" parent="1">
          <mxGeometry x="3010" y="420" width="30" height="60" as="geometry" />
        </mxCell>
        <mxCell id="jMJUYhbphQLBH6Tp2j-n-8" value="Admin" style="shape=umlActor;verticalLabelPosition=bottom;verticalAlign=top;html=1;outlineConnect=0;" vertex="1" parent="1">
          <mxGeometry x="3010" y="280" width="30" height="60" as="geometry" />
        </mxCell>
        <mxCell id="jMJUYhbphQLBH6Tp2j-n-9" value="" style="endArrow=none;html=1;rounded=0;exitX=0;exitY=0.5;exitDx=0;exitDy=0;entryX=1;entryY=0.3333333333333333;entryDx=0;entryDy=0;entryPerimeter=0;endFill=0;startArrow=classic;startFill=1;" edge="1" parent="1" source="jMJUYhbphQLBH6Tp2j-n-4" target="jMJUYhbphQLBH6Tp2j-n-8">
          <mxGeometry width="50" height="50" relative="1" as="geometry">
            <mxPoint x="3140" y="305" as="sourcePoint" />
            <mxPoint x="3060" y="450" as="targetPoint" />
          </mxGeometry>
        </mxCell>
        <mxCell id="jMJUYhbphQLBH6Tp2j-n-10" value="" style="endArrow=none;html=1;rounded=0;exitX=0;exitY=0.5;exitDx=0;exitDy=0;entryX=1;entryY=0.3333333333333333;entryDx=0;entryDy=0;entryPerimeter=0;endFill=0;startArrow=classic;startFill=1;" edge="1" parent="1" source="jMJUYhbphQLBH6Tp2j-n-4" target="jMJUYhbphQLBH6Tp2j-n-7">
          <mxGeometry width="50" height="50" relative="1" as="geometry">
            <mxPoint x="3140" y="485" as="sourcePoint" />
            <mxPoint x="3060" y="450" as="targetPoint" />
          </mxGeometry>
        </mxCell>
        <mxCell id="jMJUYhbphQLBH6Tp2j-n-11" value="" style="endArrow=none;html=1;rounded=0;exitX=1;exitY=0.5;exitDx=0;exitDy=0;entryX=0;entryY=0.3333333333333333;entryDx=0;entryDy=0;entryPerimeter=0;endFill=0;startArrow=classic;startFill=1;" edge="1" parent="1" source="jMJUYhbphQLBH6Tp2j-n-3" target="jMJUYhbphQLBH6Tp2j-n-5">
          <mxGeometry width="50" height="50" relative="1" as="geometry">
            <mxPoint x="3140" y="425" as="sourcePoint" />
            <mxPoint x="3060" y="450" as="targetPoint" />
          </mxGeometry>
        </mxCell>
        <mxCell id="jMJUYhbphQLBH6Tp2j-n-12" value="" style="endArrow=none;html=1;rounded=0;exitX=1;exitY=0.5;exitDx=0;exitDy=0;entryX=0;entryY=0.3333333333333333;entryDx=0;entryDy=0;entryPerimeter=0;endFill=0;startArrow=classic;startFill=1;" edge="1" parent="1" source="jMJUYhbphQLBH6Tp2j-n-2" target="jMJUYhbphQLBH6Tp2j-n-5">
          <mxGeometry width="50" height="50" relative="1" as="geometry">
            <mxPoint x="3250" y="305" as="sourcePoint" />
            <mxPoint x="3350" y="380" as="targetPoint" />
          </mxGeometry>
        </mxCell>
        <mxCell id="jMJUYhbphQLBH6Tp2j-n-13" value="" style="endArrow=none;html=1;rounded=0;exitX=1;exitY=0.5;exitDx=0;exitDy=0;entryX=0;entryY=0.3333333333333333;entryDx=0;entryDy=0;entryPerimeter=0;endFill=0;startArrow=classic;startFill=1;" edge="1" parent="1" source="jMJUYhbphQLBH6Tp2j-n-4" target="jMJUYhbphQLBH6Tp2j-n-5">
          <mxGeometry width="50" height="50" relative="1" as="geometry">
            <mxPoint x="3250" y="365" as="sourcePoint" />
            <mxPoint x="3360" y="390" as="targetPoint" />
          </mxGeometry>
        </mxCell>
      </root>
    </mxGraphModel>
  </diagram>
  <diagram id="Q447wHFT0IhqZgoZFjRH" name="Quản lý đơn hàng">
    <mxGraphModel grid="1" page="1" gridSize="10" guides="1" tooltips="1" connect="1" arrows="1" fold="1" pageScale="1" pageWidth="827" pageHeight="1169" math="0" shadow="0">
      <root>
        <mxCell id="0" />
        <mxCell id="1" parent="0" />
        <mxCell id="6yAlt3wKf9UgIM_r_-oo-1" value="" style="swimlane;startSize=0;" vertex="1" parent="1">
          <mxGeometry x="2580" y="600" width="220" height="160" as="geometry">
            <mxRectangle x="2590" y="250" width="50" height="40" as="alternateBounds" />
          </mxGeometry>
        </mxCell>
        <mxCell id="6yAlt3wKf9UgIM_r_-oo-2" value="Xác nhận đơn hàng" style="ellipse;whiteSpace=wrap;html=1;" vertex="1" parent="6yAlt3wKf9UgIM_r_-oo-1">
          <mxGeometry x="60" y="90" width="110" height="50" as="geometry" />
        </mxCell>
        <mxCell id="6yAlt3wKf9UgIM_r_-oo-3" value="Tìm kiếm đơn hàng" style="ellipse;whiteSpace=wrap;html=1;" vertex="1" parent="6yAlt3wKf9UgIM_r_-oo-1">
          <mxGeometry x="60" y="20" width="110" height="50" as="geometry" />
        </mxCell>
        <mxCell id="6yAlt3wKf9UgIM_r_-oo-4" value="&lt;font face=&quot;Times New Roman&quot; style=&quot;font-size: 14px;&quot;&gt;&lt;b style=&quot;&quot;&gt;Quản lý đơn hàng&lt;/b&gt;&lt;/font&gt;" style="text;html=1;align=center;verticalAlign=middle;whiteSpace=wrap;rounded=0;" vertex="1" parent="1">
          <mxGeometry x="2635" y="550" width="135" height="30" as="geometry" />
        </mxCell>
        <mxCell id="6yAlt3wKf9UgIM_r_-oo-5" value="Staff" style="shape=umlActor;verticalLabelPosition=bottom;verticalAlign=top;html=1;outlineConnect=0;" vertex="1" parent="1">
          <mxGeometry x="2500" y="640" width="30" height="60" as="geometry" />
        </mxCell>
        <mxCell id="6yAlt3wKf9UgIM_r_-oo-6" value="Admin" style="shape=umlActor;verticalLabelPosition=bottom;verticalAlign=top;html=1;outlineConnect=0;" vertex="1" parent="1">
          <mxGeometry x="2840" y="640" width="30" height="60" as="geometry" />
        </mxCell>
        <mxCell id="6yAlt3wKf9UgIM_r_-oo-7" value="" style="endArrow=none;html=1;rounded=0;exitX=1;exitY=0.5;exitDx=0;exitDy=0;entryX=0;entryY=0.3333333333333333;entryDx=0;entryDy=0;entryPerimeter=0;endFill=0;startArrow=classic;startFill=1;" edge="1" parent="1" source="6yAlt3wKf9UgIM_r_-oo-3" target="6yAlt3wKf9UgIM_r_-oo-6">
          <mxGeometry width="50" height="50" relative="1" as="geometry">
            <mxPoint x="1850" y="675" as="sourcePoint" />
            <mxPoint x="2167" y="920" as="targetPoint" />
          </mxGeometry>
        </mxCell>
        <mxCell id="6yAlt3wKf9UgIM_r_-oo-8" value="" style="endArrow=none;html=1;rounded=0;exitX=0;exitY=0.5;exitDx=0;exitDy=0;entryX=1;entryY=0.3333333333333333;entryDx=0;entryDy=0;entryPerimeter=0;endFill=0;startArrow=classic;startFill=1;" edge="1" parent="1" source="6yAlt3wKf9UgIM_r_-oo-3" target="6yAlt3wKf9UgIM_r_-oo-5">
          <mxGeometry width="50" height="50" relative="1" as="geometry">
            <mxPoint x="2650" y="635" as="sourcePoint" />
            <mxPoint x="2570" y="780" as="targetPoint" />
          </mxGeometry>
        </mxCell>
        <mxCell id="6yAlt3wKf9UgIM_r_-oo-9" value="" style="endArrow=none;html=1;rounded=0;exitX=1;exitY=0.5;exitDx=0;exitDy=0;entryX=0;entryY=0.3333333333333333;entryDx=0;entryDy=0;entryPerimeter=0;endFill=0;startArrow=classic;startFill=1;" edge="1" parent="1" source="6yAlt3wKf9UgIM_r_-oo-2" target="6yAlt3wKf9UgIM_r_-oo-6">
          <mxGeometry width="50" height="50" relative="1" as="geometry">
            <mxPoint x="2650" y="695" as="sourcePoint" />
            <mxPoint x="2570" y="650" as="targetPoint" />
          </mxGeometry>
        </mxCell>
        <mxCell id="6yAlt3wKf9UgIM_r_-oo-10" value="" style="endArrow=none;html=1;rounded=0;exitX=0;exitY=0.5;exitDx=0;exitDy=0;entryX=1;entryY=0.3333333333333333;entryDx=0;entryDy=0;entryPerimeter=0;endFill=0;startArrow=classic;startFill=1;" edge="1" parent="1" source="6yAlt3wKf9UgIM_r_-oo-2" target="6yAlt3wKf9UgIM_r_-oo-5">
          <mxGeometry width="50" height="50" relative="1" as="geometry">
            <mxPoint x="2650" y="815" as="sourcePoint" />
            <mxPoint x="2570" y="780" as="targetPoint" />
          </mxGeometry>
        </mxCell>
      </root>
    </mxGraphModel>
  </diagram>
  <diagram id="4HU2u21imRwSOgymqGev" name="Quản lý nhân viên">
    <mxGraphModel grid="1" page="1" gridSize="10" guides="1" tooltips="1" connect="1" arrows="1" fold="1" pageScale="1" pageWidth="827" pageHeight="1169" math="0" shadow="0">
      <root>
        <mxCell id="0" />
        <mxCell id="1" parent="0" />
        <mxCell id="iMNaxspaNNPq5qyif2un-1" value="" style="swimlane;startSize=0;" vertex="1" parent="1">
          <mxGeometry x="3350" y="590" width="220" height="200" as="geometry">
            <mxRectangle x="2590" y="250" width="50" height="40" as="alternateBounds" />
          </mxGeometry>
        </mxCell>
        <mxCell id="iMNaxspaNNPq5qyif2un-2" value="Sửa nv" style="ellipse;whiteSpace=wrap;html=1;" vertex="1" parent="iMNaxspaNNPq5qyif2un-1">
          <mxGeometry x="60" y="70" width="110" height="50" as="geometry" />
        </mxCell>
        <mxCell id="iMNaxspaNNPq5qyif2un-3" value="Thêm nv" style="ellipse;whiteSpace=wrap;html=1;" vertex="1" parent="iMNaxspaNNPq5qyif2un-1">
          <mxGeometry x="60" y="10" width="110" height="50" as="geometry" />
        </mxCell>
        <mxCell id="iMNaxspaNNPq5qyif2un-4" value="Xóa nv" style="ellipse;whiteSpace=wrap;html=1;" vertex="1" parent="iMNaxspaNNPq5qyif2un-1">
          <mxGeometry x="60" y="130" width="110" height="50" as="geometry" />
        </mxCell>
        <mxCell id="iMNaxspaNNPq5qyif2un-5" value="&lt;font face=&quot;Times New Roman&quot; style=&quot;font-size: 14px;&quot;&gt;&lt;b style=&quot;&quot;&gt;Quản lý nhân viên&lt;/b&gt;&lt;/font&gt;" style="text;html=1;align=center;verticalAlign=middle;whiteSpace=wrap;rounded=0;" vertex="1" parent="1">
          <mxGeometry x="3405" y="550" width="135" height="30" as="geometry" />
        </mxCell>
        <mxCell id="iMNaxspaNNPq5qyif2un-6" value="Admin" style="shape=umlActor;verticalLabelPosition=bottom;verticalAlign=top;html=1;outlineConnect=0;" vertex="1" parent="1">
          <mxGeometry x="3290" y="610" width="30" height="60" as="geometry" />
        </mxCell>
        <mxCell id="iMNaxspaNNPq5qyif2un-7" value="" style="endArrow=none;html=1;rounded=0;exitX=0;exitY=0.5;exitDx=0;exitDy=0;entryX=1;entryY=0.3333333333333333;entryDx=0;entryDy=0;entryPerimeter=0;endFill=0;startArrow=classic;startFill=1;" edge="1" parent="1" source="iMNaxspaNNPq5qyif2un-3" target="iMNaxspaNNPq5qyif2un-6">
          <mxGeometry width="50" height="50" relative="1" as="geometry">
            <mxPoint x="2620" y="675" as="sourcePoint" />
            <mxPoint x="2937" y="920" as="targetPoint" />
          </mxGeometry>
        </mxCell>
        <mxCell id="iMNaxspaNNPq5qyif2un-8" value="" style="endArrow=none;html=1;rounded=0;exitX=0;exitY=0.5;exitDx=0;exitDy=0;entryX=1;entryY=0.3333333333333333;entryDx=0;entryDy=0;entryPerimeter=0;endFill=0;startArrow=classic;startFill=1;" edge="1" parent="1" source="iMNaxspaNNPq5qyif2un-2" target="iMNaxspaNNPq5qyif2un-6">
          <mxGeometry width="50" height="50" relative="1" as="geometry">
            <mxPoint x="3420" y="695" as="sourcePoint" />
            <mxPoint x="3340" y="650" as="targetPoint" />
          </mxGeometry>
        </mxCell>
        <mxCell id="iMNaxspaNNPq5qyif2un-9" value="" style="endArrow=none;html=1;rounded=0;exitX=0;exitY=0.5;exitDx=0;exitDy=0;entryX=1;entryY=0.3333333333333333;entryDx=0;entryDy=0;entryPerimeter=0;endFill=0;startArrow=classic;startFill=1;" edge="1" parent="1" source="iMNaxspaNNPq5qyif2un-4" target="iMNaxspaNNPq5qyif2un-6">
          <mxGeometry width="50" height="50" relative="1" as="geometry">
            <mxPoint x="3420" y="635" as="sourcePoint" />
            <mxPoint x="3340" y="780" as="targetPoint" />
          </mxGeometry>
        </mxCell>
      </root>
    </mxGraphModel>
  </diagram>
  <diagram id="xBTXJm_JQbDEFA9DctQG" name="Quản lý sản phẩm">
    <mxGraphModel grid="1" page="1" gridSize="10" guides="1" tooltips="1" connect="1" arrows="1" fold="1" pageScale="1" pageWidth="827" pageHeight="1169" math="0" shadow="0">
      <root>
        <mxCell id="0" />
        <mxCell id="1" parent="0" />
        <mxCell id="Y95aBwYr0GW7bJCuzI_k-1" value="" style="swimlane;startSize=0;" vertex="1" parent="1">
          <mxGeometry x="2560" y="860" width="220" height="250" as="geometry">
            <mxRectangle x="2590" y="250" width="50" height="40" as="alternateBounds" />
          </mxGeometry>
        </mxCell>
        <mxCell id="Y95aBwYr0GW7bJCuzI_k-2" value="Sửa sp" style="ellipse;whiteSpace=wrap;html=1;" vertex="1" parent="Y95aBwYr0GW7bJCuzI_k-1">
          <mxGeometry x="60" y="70" width="110" height="50" as="geometry" />
        </mxCell>
        <mxCell id="Y95aBwYr0GW7bJCuzI_k-3" value="Thêm sp" style="ellipse;whiteSpace=wrap;html=1;" vertex="1" parent="Y95aBwYr0GW7bJCuzI_k-1">
          <mxGeometry x="60" y="10" width="110" height="50" as="geometry" />
        </mxCell>
        <mxCell id="Y95aBwYr0GW7bJCuzI_k-4" value="Xóa sp" style="ellipse;whiteSpace=wrap;html=1;" vertex="1" parent="Y95aBwYr0GW7bJCuzI_k-1">
          <mxGeometry x="60" y="130" width="110" height="50" as="geometry" />
        </mxCell>
        <mxCell id="Y95aBwYr0GW7bJCuzI_k-5" value="Bộ lọc" style="ellipse;whiteSpace=wrap;html=1;" vertex="1" parent="Y95aBwYr0GW7bJCuzI_k-1">
          <mxGeometry x="60" y="190" width="110" height="50" as="geometry" />
        </mxCell>
        <mxCell id="Y95aBwYr0GW7bJCuzI_k-6" value="Client" style="shape=umlActor;verticalLabelPosition=bottom;verticalAlign=top;html=1;outlineConnect=0;" vertex="1" parent="1">
          <mxGeometry x="2830" y="950" width="30" height="60" as="geometry" />
        </mxCell>
        <mxCell id="Y95aBwYr0GW7bJCuzI_k-7" value="&lt;font face=&quot;Times New Roman&quot; style=&quot;font-size: 14px;&quot;&gt;&lt;b style=&quot;&quot;&gt;Quản lý sản phẩm&lt;/b&gt;&lt;/font&gt;" style="text;html=1;align=center;verticalAlign=middle;whiteSpace=wrap;rounded=0;" vertex="1" parent="1">
          <mxGeometry x="2615" y="820" width="135" height="30" as="geometry" />
        </mxCell>
        <mxCell id="Y95aBwYr0GW7bJCuzI_k-8" value="Staff" style="shape=umlActor;verticalLabelPosition=bottom;verticalAlign=top;html=1;outlineConnect=0;" vertex="1" parent="1">
          <mxGeometry x="2500" y="1020" width="30" height="60" as="geometry" />
        </mxCell>
        <mxCell id="Y95aBwYr0GW7bJCuzI_k-9" value="Admin" style="shape=umlActor;verticalLabelPosition=bottom;verticalAlign=top;html=1;outlineConnect=0;" vertex="1" parent="1">
          <mxGeometry x="2500" y="880" width="30" height="60" as="geometry" />
        </mxCell>
        <mxCell id="Y95aBwYr0GW7bJCuzI_k-10" value="" style="endArrow=none;html=1;rounded=0;exitX=0;exitY=0.5;exitDx=0;exitDy=0;entryX=1;entryY=0.3333333333333333;entryDx=0;entryDy=0;entryPerimeter=0;endFill=0;startArrow=classic;startFill=1;" edge="1" parent="1" source="Y95aBwYr0GW7bJCuzI_k-3" target="Y95aBwYr0GW7bJCuzI_k-9">
          <mxGeometry width="50" height="50" relative="1" as="geometry">
            <mxPoint x="1830" y="945" as="sourcePoint" />
            <mxPoint x="2147" y="1190" as="targetPoint" />
          </mxGeometry>
        </mxCell>
        <mxCell id="Y95aBwYr0GW7bJCuzI_k-11" value="" style="endArrow=none;html=1;rounded=0;exitX=0;exitY=0.5;exitDx=0;exitDy=0;entryX=1;entryY=0.3333333333333333;entryDx=0;entryDy=0;entryPerimeter=0;endFill=0;startArrow=classic;startFill=1;" edge="1" parent="1" source="Y95aBwYr0GW7bJCuzI_k-2" target="Y95aBwYr0GW7bJCuzI_k-8">
          <mxGeometry width="50" height="50" relative="1" as="geometry">
            <mxPoint x="2630" y="905" as="sourcePoint" />
            <mxPoint x="2550" y="1050" as="targetPoint" />
          </mxGeometry>
        </mxCell>
        <mxCell id="Y95aBwYr0GW7bJCuzI_k-12" value="" style="endArrow=none;html=1;rounded=0;exitX=0;exitY=0.5;exitDx=0;exitDy=0;entryX=1;entryY=0.3333333333333333;entryDx=0;entryDy=0;entryPerimeter=0;endFill=0;startArrow=classic;startFill=1;" edge="1" parent="1" source="Y95aBwYr0GW7bJCuzI_k-2" target="Y95aBwYr0GW7bJCuzI_k-9">
          <mxGeometry width="50" height="50" relative="1" as="geometry">
            <mxPoint x="2630" y="965" as="sourcePoint" />
            <mxPoint x="2550" y="920" as="targetPoint" />
          </mxGeometry>
        </mxCell>
        <mxCell id="Y95aBwYr0GW7bJCuzI_k-13" value="" style="endArrow=none;html=1;rounded=0;exitX=0;exitY=0.5;exitDx=0;exitDy=0;entryX=1;entryY=0.3333333333333333;entryDx=0;entryDy=0;entryPerimeter=0;endFill=0;startArrow=classic;startFill=1;" edge="1" parent="1" source="Y95aBwYr0GW7bJCuzI_k-4" target="Y95aBwYr0GW7bJCuzI_k-9">
          <mxGeometry width="50" height="50" relative="1" as="geometry">
            <mxPoint x="2630" y="905" as="sourcePoint" />
            <mxPoint x="2550" y="1050" as="targetPoint" />
          </mxGeometry>
        </mxCell>
        <mxCell id="Y95aBwYr0GW7bJCuzI_k-14" value="" style="endArrow=none;html=1;rounded=0;exitX=0;exitY=0.5;exitDx=0;exitDy=0;entryX=1;entryY=0.3333333333333333;entryDx=0;entryDy=0;entryPerimeter=0;endFill=0;startArrow=classic;startFill=1;" edge="1" parent="1" source="Y95aBwYr0GW7bJCuzI_k-5" target="Y95aBwYr0GW7bJCuzI_k-9">
          <mxGeometry width="50" height="50" relative="1" as="geometry">
            <mxPoint x="2630" y="1025" as="sourcePoint" />
            <mxPoint x="2550" y="1050" as="targetPoint" />
          </mxGeometry>
        </mxCell>
        <mxCell id="Y95aBwYr0GW7bJCuzI_k-15" value="" style="endArrow=none;html=1;rounded=0;exitX=0;exitY=0.5;exitDx=0;exitDy=0;entryX=1;entryY=0.3333333333333333;entryDx=0;entryDy=0;entryPerimeter=0;endFill=0;startArrow=classic;startFill=1;" edge="1" parent="1" source="Y95aBwYr0GW7bJCuzI_k-4" target="Y95aBwYr0GW7bJCuzI_k-8">
          <mxGeometry width="50" height="50" relative="1" as="geometry">
            <mxPoint x="2630" y="1085" as="sourcePoint" />
            <mxPoint x="2550" y="1050" as="targetPoint" />
          </mxGeometry>
        </mxCell>
        <mxCell id="Y95aBwYr0GW7bJCuzI_k-16" value="" style="endArrow=none;html=1;rounded=0;exitX=0;exitY=0.5;exitDx=0;exitDy=0;entryX=1;entryY=0.3333333333333333;entryDx=0;entryDy=0;entryPerimeter=0;endFill=0;startArrow=classic;startFill=1;" edge="1" parent="1" source="Y95aBwYr0GW7bJCuzI_k-5" target="Y95aBwYr0GW7bJCuzI_k-8">
          <mxGeometry width="50" height="50" relative="1" as="geometry">
            <mxPoint x="2630" y="1025" as="sourcePoint" />
            <mxPoint x="2550" y="920" as="targetPoint" />
          </mxGeometry>
        </mxCell>
        <mxCell id="Y95aBwYr0GW7bJCuzI_k-17" value="" style="endArrow=none;html=1;rounded=0;exitX=1;exitY=0.5;exitDx=0;exitDy=0;entryX=0;entryY=0.3333333333333333;entryDx=0;entryDy=0;entryPerimeter=0;endFill=0;startArrow=classic;startFill=1;" edge="1" parent="1" source="Y95aBwYr0GW7bJCuzI_k-5" target="Y95aBwYr0GW7bJCuzI_k-6">
          <mxGeometry width="50" height="50" relative="1" as="geometry">
            <mxPoint x="2740" y="1025" as="sourcePoint" />
            <mxPoint x="2860" y="1000" as="targetPoint" />
          </mxGeometry>
        </mxCell>
      </root>
    </mxGraphModel>
  </diagram>
  <diagram id="zhFN7DP71PlDp16H8JYM" name="Thống kê">
    <mxGraphModel grid="1" page="1" gridSize="10" guides="1" tooltips="1" connect="1" arrows="1" fold="1" pageScale="1" pageWidth="827" pageHeight="1169" math="0" shadow="0">
      <root>
        <mxCell id="0" />
        <mxCell id="1" parent="0" />
        <mxCell id="tMTDTyt-bwtU2oP0F1CQ-1" value="" style="swimlane;startSize=0;" vertex="1" parent="1">
          <mxGeometry x="2700" y="720" width="220" height="250" as="geometry">
            <mxRectangle x="2590" y="250" width="50" height="40" as="alternateBounds" />
          </mxGeometry>
        </mxCell>
        <mxCell id="tMTDTyt-bwtU2oP0F1CQ-2" value="Xem doanh thu" style="ellipse;whiteSpace=wrap;html=1;" vertex="1" parent="tMTDTyt-bwtU2oP0F1CQ-1">
          <mxGeometry x="60" y="70" width="110" height="50" as="geometry" />
        </mxCell>
        <mxCell id="tMTDTyt-bwtU2oP0F1CQ-3" value="Xem top sp chạy nhất" style="ellipse;whiteSpace=wrap;html=1;" vertex="1" parent="tMTDTyt-bwtU2oP0F1CQ-1">
          <mxGeometry x="60" y="130" width="110" height="50" as="geometry" />
        </mxCell>
        <mxCell id="tMTDTyt-bwtU2oP0F1CQ-4" value="Client" style="shape=umlActor;verticalLabelPosition=bottom;verticalAlign=top;html=1;outlineConnect=0;" vertex="1" parent="1">
          <mxGeometry x="2970" y="810" width="30" height="60" as="geometry" />
        </mxCell>
        <mxCell id="tMTDTyt-bwtU2oP0F1CQ-5" value="&lt;font face=&quot;Times New Roman&quot; style=&quot;font-size: 14px;&quot;&gt;&lt;b style=&quot;&quot;&gt;Thống kê&lt;/b&gt;&lt;/font&gt;" style="text;html=1;align=center;verticalAlign=middle;whiteSpace=wrap;rounded=0;" vertex="1" parent="1">
          <mxGeometry x="2755" y="680" width="135" height="30" as="geometry" />
        </mxCell>
        <mxCell id="tMTDTyt-bwtU2oP0F1CQ-6" value="Staff" style="shape=umlActor;verticalLabelPosition=bottom;verticalAlign=top;html=1;outlineConnect=0;" vertex="1" parent="1">
          <mxGeometry x="2640" y="880" width="30" height="60" as="geometry" />
        </mxCell>
        <mxCell id="tMTDTyt-bwtU2oP0F1CQ-7" value="Admin" style="shape=umlActor;verticalLabelPosition=bottom;verticalAlign=top;html=1;outlineConnect=0;" vertex="1" parent="1">
          <mxGeometry x="2640" y="740" width="30" height="60" as="geometry" />
        </mxCell>
        <mxCell id="tMTDTyt-bwtU2oP0F1CQ-8" value="" style="endArrow=none;html=1;rounded=0;exitX=0;exitY=0.5;exitDx=0;exitDy=0;entryX=1;entryY=0.3333333333333333;entryDx=0;entryDy=0;entryPerimeter=0;endFill=0;startArrow=classic;startFill=1;" edge="1" parent="1" source="tMTDTyt-bwtU2oP0F1CQ-2" target="tMTDTyt-bwtU2oP0F1CQ-6">
          <mxGeometry width="50" height="50" relative="1" as="geometry">
            <mxPoint x="2770" y="765" as="sourcePoint" />
            <mxPoint x="2690" y="910" as="targetPoint" />
          </mxGeometry>
        </mxCell>
        <mxCell id="tMTDTyt-bwtU2oP0F1CQ-9" value="" style="endArrow=none;html=1;rounded=0;exitX=0;exitY=0.5;exitDx=0;exitDy=0;entryX=1;entryY=0.3333333333333333;entryDx=0;entryDy=0;entryPerimeter=0;endFill=0;startArrow=classic;startFill=1;" edge="1" parent="1" source="tMTDTyt-bwtU2oP0F1CQ-2" target="tMTDTyt-bwtU2oP0F1CQ-7">
          <mxGeometry width="50" height="50" relative="1" as="geometry">
            <mxPoint x="2770" y="825" as="sourcePoint" />
            <mxPoint x="2690" y="780" as="targetPoint" />
          </mxGeometry>
        </mxCell>
        <mxCell id="tMTDTyt-bwtU2oP0F1CQ-10" value="" style="endArrow=none;html=1;rounded=0;exitX=0;exitY=0.5;exitDx=0;exitDy=0;entryX=1;entryY=0.3333333333333333;entryDx=0;entryDy=0;entryPerimeter=0;endFill=0;startArrow=classic;startFill=1;" edge="1" parent="1" source="tMTDTyt-bwtU2oP0F1CQ-3" target="tMTDTyt-bwtU2oP0F1CQ-7">
          <mxGeometry width="50" height="50" relative="1" as="geometry">
            <mxPoint x="2770" y="765" as="sourcePoint" />
            <mxPoint x="2690" y="910" as="targetPoint" />
          </mxGeometry>
        </mxCell>
        <mxCell id="tMTDTyt-bwtU2oP0F1CQ-11" value="" style="endArrow=none;html=1;rounded=0;exitX=0;exitY=0.5;exitDx=0;exitDy=0;entryX=1;entryY=0.3333333333333333;entryDx=0;entryDy=0;entryPerimeter=0;endFill=0;startArrow=classic;startFill=1;" edge="1" parent="1" source="tMTDTyt-bwtU2oP0F1CQ-3" target="tMTDTyt-bwtU2oP0F1CQ-6">
          <mxGeometry width="50" height="50" relative="1" as="geometry">
            <mxPoint x="2770" y="945" as="sourcePoint" />
            <mxPoint x="2690" y="910" as="targetPoint" />
          </mxGeometry>
        </mxCell>
        <mxCell id="tMTDTyt-bwtU2oP0F1CQ-12" value="" style="endArrow=none;html=1;rounded=0;exitX=1;exitY=0.5;exitDx=0;exitDy=0;entryX=0;entryY=0.3333333333333333;entryDx=0;entryDy=0;entryPerimeter=0;endFill=0;startArrow=classic;startFill=1;" edge="1" parent="1" source="tMTDTyt-bwtU2oP0F1CQ-3" target="tMTDTyt-bwtU2oP0F1CQ-4">
          <mxGeometry width="50" height="50" relative="1" as="geometry">
            <mxPoint x="2880" y="825" as="sourcePoint" />
            <mxPoint x="2990" y="850" as="targetPoint" />
          </mxGeometry>
        </mxCell>
      </root>
    </mxGraphModel>
  </diagram>
</mxfile>
